<svg width="739" height="645" viewBox="0 0 739 645" fill="none" xmlns="http://www.w3.org/2000/svg">
<g clip-path="url(#clip0_216_2)">
<path d="M533 33L526 47L517 60.5L505 71L499.5 40L491.5 20L480 1L503 5L522.5 11L536 20L533 33Z" fill="#5D6546"/>
<path d="M0.883942 609.187H66.9839C67.2234 609.176 67.4494 609.073 67.6149 608.9C67.7804 608.726 67.8728 608.496 67.8728 608.256C67.8728 608.016 67.7804 607.786 67.6149 607.612C67.4494 607.439 67.2234 607.336 66.9839 607.325H0.883942C0.64449 607.336 0.418519 607.439 0.252991 607.612C0.0874621 607.786 -0.00488281 608.016 -0.00488281 608.256C-0.00488281 608.496 0.0874621 608.726 0.252991 608.9C0.418519 609.073 0.64449 609.176 0.883942 609.187V609.187Z" fill="#161616"/>
<path d="M64.9572 627.186H205.097C205.337 627.175 205.563 627.072 205.728 626.899C205.894 626.725 205.986 626.495 205.986 626.255C205.986 626.015 205.894 625.785 205.728 625.611C205.563 625.438 205.337 625.335 205.097 625.324H64.9572C64.7177 625.335 64.4918 625.438 64.3262 625.611C64.1607 625.785 64.0684 626.015 64.0684 626.255C64.0684 626.495 64.1607 626.725 64.3262 626.899C64.4918 627.072 64.7177 627.175 64.9572 627.186V627.186Z" fill="#161616"/>
<path d="M249.147 610.18H599.509C599.749 610.169 599.975 610.066 600.14 609.893C600.306 609.719 600.398 609.489 600.398 609.249C600.398 609.009 600.306 608.779 600.14 608.605C599.975 608.432 599.749 608.329 599.509 608.318H249.147C248.908 608.329 248.682 608.432 248.516 608.605C248.351 608.779 248.258 609.009 248.258 609.249C248.258 609.489 248.351 609.719 248.516 609.893C248.682 610.066 248.908 610.169 249.147 610.18V610.18Z" fill="#161616"/>
<path d="M451.358 597.146H655.558C655.798 597.135 656.023 597.032 656.189 596.859C656.354 596.685 656.447 596.455 656.447 596.215C656.447 595.975 656.354 595.745 656.189 595.571C656.023 595.398 655.798 595.295 655.558 595.284H451.358C451.119 595.295 450.893 595.398 450.727 595.571C450.562 595.745 450.469 595.975 450.469 596.215C450.469 596.455 450.562 596.685 450.727 596.859C450.893 597.032 451.119 597.135 451.358 597.146V597.146Z" fill="#161616"/>
<path d="M556.498 630.165H737.667C737.906 630.154 738.132 630.051 738.298 629.878C738.463 629.704 738.556 629.474 738.556 629.234C738.556 628.994 738.463 628.764 738.298 628.59C738.132 628.417 737.906 628.314 737.667 628.303H556.497C556.25 628.303 556.013 628.401 555.839 628.576C555.664 628.75 555.566 628.987 555.566 629.234C555.566 629.481 555.664 629.718 555.839 629.892C556.013 630.067 556.25 630.165 556.497 630.165H556.498Z" fill="#161616"/>
<path d="M567.112 33.091C579.712 39.236 583.683 53.759 585.112 66.607C587.036 83.861 586.602 101.674 586.477 118.991C586.229 156.851 583.994 194.711 581.946 232.509C577.912 308.042 573.857 383.576 569.781 459.109C567.484 501.624 565.209 544.139 562.954 586.654C562.892 587.833 564.754 587.833 564.816 586.654C568.974 509.444 573.112 432.255 577.229 355.086C579.277 316.667 581.346 278.269 583.436 239.892C585.484 201.659 587.843 163.427 588.336 125.132C588.46 114.457 588.46 103.781 588.212 93.044C588.026 83.92 587.964 74.735 586.912 65.673C585.298 52.453 581.012 37.681 568.106 31.413C566.989 30.979 566.058 32.592 567.113 33.089L567.112 33.091Z" fill="#1D1E1F"/>
<path d="M534.526 20.803C548.613 23.1507 561.994 28.6226 573.69 36.817C574.683 37.5 575.614 35.886 574.621 35.203C562.773 26.9563 549.252 21.4249 535.021 19.003C533.842 18.755 533.345 20.555 534.521 20.803H534.526Z" fill="#1D1E1F"/>
<path d="M479.598 2.679C498.898 4.665 519.693 7.21 534.526 21.051C535.395 21.858 536.698 20.551 535.826 19.751C520.62 5.538 499.456 2.869 479.594 0.820998C478.353 0.696998 478.415 2.559 479.594 2.683L479.598 2.679Z" fill="#1D1E1F"/>
<path d="M534.092 21.112C532.739 31.0104 529.383 40.5292 524.229 49.0874C519.074 57.6456 512.23 65.0638 504.114 70.889C503.121 71.572 504.052 73.189 505.045 72.503C513.435 66.5031 520.506 58.8475 525.822 50.0087C531.138 41.1698 534.586 31.3353 535.954 21.112C536.14 19.933 534.278 19.933 534.092 21.112V21.112Z" fill="#1D1E1F"/>
<path d="M488.162 23.284C480.714 22.784 473.825 32.159 477.425 39.111C480.094 44.262 490.211 46.993 493.748 41.411C494.368 40.418 492.755 39.487 492.134 40.48C489.341 44.949 480.652 41.908 478.976 37.873C476.493 32.039 482.204 24.715 488.224 25.15C489.341 25.212 489.341 23.35 488.162 23.288V23.284Z" fill="#1D1E1F"/>
<path d="M477.926 1.251C478.595 9.9372 479.985 18.5526 482.084 27.008C482.117 27.1262 482.173 27.2368 482.248 27.3334C482.324 27.43 482.418 27.5108 482.524 27.5712C482.631 27.6315 482.749 27.6703 482.87 27.6852C482.992 27.7001 483.116 27.6908 483.234 27.658C483.352 27.6252 483.463 27.5694 483.559 27.4938C483.656 27.4183 483.737 27.3244 483.797 27.2176C483.857 27.1108 483.896 26.9932 483.911 26.8714C483.926 26.7497 483.917 26.6262 483.884 26.508C481.84 18.2118 480.468 9.76397 479.784 1.247C479.66 0.0679972 477.798 0.0679972 477.922 1.247L477.926 1.251Z" fill="#1D1E1F"/>
<path d="M489.529 44.759C493.625 54.069 497.701 63.379 501.756 72.689C502.256 73.806 503.866 72.813 503.37 71.758C499.274 62.448 495.198 53.138 491.143 43.828C490.709 42.773 489.095 43.704 489.529 44.759V44.759Z" fill="#1D1E1F"/>
<path d="M490.025 43.953C492.446 50.904 494.925 57.853 498.714 64.253C498.841 64.4597 499.044 64.6087 499.279 64.6683C499.514 64.7279 499.763 64.6934 499.974 64.5721C500.184 64.4509 500.338 64.2525 500.404 64.019C500.471 63.7856 500.443 63.5355 500.328 63.322C497.006 57.1043 494.542 50.4648 493.004 43.585C492.504 43.895 491.949 44.206 491.452 44.516L491.576 44.64C491.504 44.2717 491.463 43.8981 491.452 43.523C491.39 43.585 491.39 43.647 491.328 43.709L492.818 43.523C492.756 43.399 498.28 38.372 498.652 38.061C498.127 37.9452 497.609 37.8003 497.1 37.627C498.382 43.2715 499.294 48.9937 499.831 54.757C500.452 54.695 501.072 54.571 501.631 54.509C500.567 50.4674 499.219 46.5059 497.597 42.654C497.522 42.4251 497.362 42.2338 497.15 42.12C496.938 42.0062 496.69 41.9787 496.458 42.0431C496.226 42.1076 496.028 42.259 495.904 42.466C495.781 42.6729 495.743 42.9194 495.797 43.154C496.852 48.181 497.845 53.209 498.897 58.298C499.518 58.112 500.076 57.988 500.697 57.798C499.332 53.578 497.842 49.481 496.166 45.385C496.133 45.2668 496.077 45.1562 496.002 45.0596C495.926 44.963 495.832 44.8822 495.726 44.8218C495.619 44.7615 495.501 44.7227 495.379 44.7078C495.258 44.6929 495.134 44.7022 495.016 44.735C494.898 44.7678 494.787 44.8236 494.691 44.8992C494.594 44.9747 494.513 45.0686 494.453 45.1754C494.392 45.2822 494.354 45.3998 494.339 45.5215C494.324 45.6433 494.333 45.7668 494.366 45.885C495.607 50.54 496.849 55.257 498.09 59.912L499.766 59.167C498.028 55.133 496.352 51.098 494.615 47.002C494.181 46.071 492.567 46.754 492.939 47.747C495.422 54.447 497.904 61.153 500.263 67.918C500.329 68.1567 500.488 68.3593 500.703 68.4812C500.919 68.6031 501.174 68.6343 501.413 68.568C501.652 68.5017 501.854 68.3433 501.976 68.1276C502.098 67.9119 502.129 67.6567 502.063 67.418C501.112 64.133 500.468 60.7669 500.139 57.363C499.518 57.425 498.898 57.549 498.339 57.611L501.691 69.155C501.757 69.3937 501.916 69.5963 502.131 69.7182C502.347 69.8401 502.602 69.8713 502.841 69.805C503.08 69.7387 503.282 69.5803 503.404 69.3646C503.526 69.1489 503.557 68.8937 503.491 68.655C502.506 64.2979 501.802 59.8822 501.381 55.435C500.76 55.497 500.14 55.621 499.581 55.683C500.388 60.214 501.133 64.745 502.25 69.213C502.498 70.206 504.174 70.02 504.05 68.965C503.553 63.3766 502.619 57.8356 501.257 52.393C501.191 52.1543 501.032 51.9517 500.817 51.8298C500.601 51.7079 500.346 51.6767 500.107 51.743C499.868 51.8093 499.666 51.9677 499.544 52.1834C499.422 52.399 499.391 52.6543 499.457 52.893C499.861 54.7908 499.923 56.7452 499.643 58.665C500.202 58.479 500.822 58.355 501.381 58.165C499.835 55.5835 498.842 52.7092 498.464 49.724C498.462 49.521 498.394 49.3241 498.271 49.1625C498.148 49.001 497.976 48.8834 497.781 48.8273C497.586 48.7712 497.378 48.7794 497.188 48.8509C496.998 48.9224 496.836 49.0532 496.726 49.224C496.292 49.845 495.919 50.465 495.485 51.086H497.099C496.315 49.3102 495.954 47.3769 496.044 45.438H494.182L493.81 46.738C494.335 46.8538 494.853 46.9987 495.362 47.172C495.085 45.72 495.022 44.2352 495.176 42.765C494.555 42.827 493.935 42.951 493.376 43.013C493.252 43.696 493.19 44.378 493.066 45.061H494.68C494.928 44.192 495.239 43.323 495.487 42.454C495.053 42.268 494.556 42.082 494.122 41.895L493.191 44.874C493.691 45.184 494.246 45.495 494.743 45.805C495.135 43.9374 496.114 42.2441 497.536 40.972C497.011 40.8562 496.493 40.7114 495.984 40.538C496.222 42.1068 496.05 43.7106 495.484 45.193C496.105 45.255 496.725 45.379 497.284 45.441C497.263 44.1265 497.495 42.8202 497.967 41.593C497.346 41.531 496.726 41.407 496.167 41.345C496.167 42.462 496.229 43.579 496.229 44.697C496.229 45.69 497.905 45.997 498.029 44.945L498.587 41.593H496.787C496.787 42.214 496.725 42.834 496.725 43.517C496.225 44.634 497.842 45.565 498.339 44.448C498.624 43.9418 498.794 43.379 498.837 42.7997C498.88 42.2203 498.794 41.6386 498.587 41.096C498.339 40.289 496.973 40.165 496.787 41.096L496.228 44.448C496.848 44.51 497.469 44.634 498.028 44.696C498.028 43.579 497.966 42.462 497.966 41.344C497.961 41.1252 497.879 40.9152 497.733 40.7518C497.588 40.5883 497.389 40.4821 497.172 40.4522C496.955 40.4224 496.735 40.4708 496.55 40.5888C496.366 40.7068 496.23 40.8866 496.166 41.096C495.643 42.4837 495.39 43.9584 495.421 45.441C495.426 45.6598 495.508 45.8698 495.654 46.0332C495.799 46.1967 495.998 46.3029 496.215 46.3327C496.432 46.3626 496.652 46.3142 496.837 46.1962C497.021 46.0782 497.157 45.8984 497.221 45.689C497.883 43.8834 498.055 41.9348 497.721 40.041C497.597 39.296 496.604 39.234 496.169 39.607C494.532 41.1179 493.386 43.0855 492.88 45.255C492.832 45.4515 492.848 45.6584 492.925 45.8452C493.003 46.0321 493.139 46.1891 493.312 46.2932C493.486 46.3973 493.688 46.4431 493.89 46.4238C494.091 46.4045 494.281 46.3212 494.432 46.186C495.053 45.5753 495.505 44.8141 495.745 43.9765C495.984 43.1389 496.002 42.2536 495.797 41.407C495.755 41.2728 495.683 41.1496 495.588 41.046C495.493 40.9425 495.376 40.8612 495.245 40.8078C495.115 40.7545 494.975 40.7304 494.834 40.7374C494.694 40.7443 494.556 40.7821 494.432 40.848C493.572 41.3532 492.938 42.1687 492.661 43.1268C492.384 44.0849 492.485 45.1127 492.942 45.999C493.252 46.682 494.183 46.499 494.556 45.999C494.935 45.5136 495.181 44.9374 495.269 44.3276C495.357 43.7178 495.283 43.0956 495.056 42.523C494.998 42.3081 494.863 42.1218 494.677 41.9989C494.492 41.876 494.267 41.825 494.047 41.8554C493.826 41.8858 493.624 41.9955 493.479 42.1641C493.333 42.3326 493.254 42.5483 493.256 42.771C493.091 44.4075 493.174 46.0595 493.504 47.671C493.552 47.8233 493.638 47.9611 493.753 48.0721C493.868 48.1831 494.009 48.2637 494.163 48.3068C494.317 48.3498 494.479 48.3539 494.635 48.3187C494.791 48.2835 494.936 48.21 495.056 48.105C495.417 47.7834 495.692 47.3761 495.855 46.9205C496.017 46.4649 496.063 45.9758 495.987 45.498C495.987 45.2511 495.889 45.0143 495.714 44.8397C495.54 44.6651 495.303 44.567 495.056 44.567C494.809 44.567 494.572 44.6651 494.398 44.8397C494.223 45.0143 494.125 45.2511 494.125 45.498C494.057 47.7609 494.502 50.0099 495.425 52.077C495.735 52.76 496.666 52.577 497.039 52.077C497.473 51.456 497.846 50.836 498.28 50.215C497.722 50.029 497.101 49.905 496.542 49.715C496.925 53.0271 498.004 56.2208 499.707 59.087C500.207 59.956 501.321 59.459 501.445 58.587C501.735 56.4992 501.651 54.3764 501.197 52.318C500.576 52.504 500.018 52.628 499.397 52.818C500.738 58.0941 501.652 63.4699 502.128 68.893C502.749 68.831 503.369 68.707 503.928 68.645C502.873 64.176 502.066 59.645 501.259 55.115C501.201 54.9001 501.066 54.7138 500.88 54.5909C500.695 54.4681 500.47 54.417 500.25 54.4474C500.029 54.4778 499.827 54.5875 499.682 54.756C499.536 54.9246 499.457 55.1403 499.459 55.363C499.87 59.9794 500.595 64.5625 501.631 69.08C502.252 68.894 502.81 68.77 503.431 68.58L500.079 57.036C499.769 56.043 498.155 56.229 498.279 57.284C498.628 60.8571 499.293 64.3922 500.266 67.848C500.886 67.662 501.445 67.538 502.066 67.348C499.645 60.583 497.225 53.88 494.742 47.177L493.066 47.922C494.804 51.956 496.48 55.991 498.217 60.087C498.651 61.08 500.203 60.335 499.893 59.342C498.652 54.687 497.41 49.97 496.169 45.315C495.548 45.501 494.99 45.625 494.369 45.815C495.983 49.915 497.469 54.07 498.9 58.228C498.975 58.4569 499.135 58.6482 499.347 58.762C499.559 58.8758 499.807 58.9033 500.039 58.8389C500.271 58.7744 500.469 58.623 500.592 58.416C500.715 58.2091 500.754 57.9626 500.7 57.728C499.645 52.701 498.652 47.673 497.6 42.584C496.979 42.77 496.421 42.894 495.8 43.084C497.422 46.9359 498.77 50.8974 499.834 54.939C500.082 55.932 501.758 55.746 501.634 54.691C501.077 48.7622 500.144 42.8747 498.841 37.064C498.792 36.9117 498.707 36.7739 498.592 36.6629C498.477 36.5519 498.336 36.4713 498.182 36.4282C498.028 36.3852 497.866 36.3811 497.71 36.4163C497.554 36.4515 497.409 36.525 497.289 36.63C495.551 38.244 492.51 40.168 491.331 42.278C490.772 43.333 490.772 43.892 491.455 44.699C491.56 44.7962 491.685 44.8693 491.821 44.9132C491.957 44.9571 492.101 44.9706 492.243 44.9529C492.385 44.9352 492.522 44.8866 492.643 44.8106C492.764 44.7346 492.867 44.633 492.945 44.513C493.007 44.451 493.007 44.389 493.069 44.327C493.172 44.1525 493.216 43.9493 493.194 43.7478C493.171 43.5463 493.084 43.3576 492.945 43.21L492.821 43.086C492.672 42.9445 492.481 42.8557 492.277 42.8332C492.073 42.8106 491.867 42.8556 491.691 42.9613C491.515 43.0669 491.378 43.2273 491.302 43.418C491.226 43.6087 491.214 43.8191 491.269 44.017C492.793 51.0658 495.322 57.859 498.779 64.188C499.338 63.878 499.834 63.567 500.393 63.257C496.731 56.988 494.249 50.223 491.893 43.396C491.393 42.341 489.593 42.837 490.031 43.955L490.025 43.953Z" fill="#1D1E1F"/>
<path d="M478.914 3.92C480.697 10.5243 482.024 17.2431 482.886 24.029C482.892 24.1935 482.94 24.3537 483.026 24.4943C483.111 24.6349 483.231 24.7513 483.374 24.8323C483.518 24.9132 483.679 24.9561 483.844 24.9567C484.008 24.9574 484.17 24.9158 484.314 24.836C486.325 23.7274 488.475 22.8924 490.707 22.353C490.843 22.3129 490.968 22.2429 491.073 22.148C491.178 22.0531 491.261 21.9358 491.314 21.8047C491.368 21.6737 491.392 21.5322 491.383 21.3909C491.375 21.2495 491.335 21.1118 491.266 20.988C488.411 16.705 485.742 12.299 483.26 7.83C482.701 6.775 481.15 7.706 481.646 8.761C483.294 12.4126 484.643 16.1916 485.68 20.061L487.356 19.316C485.941 16.6201 484.917 13.7361 484.315 10.751L482.639 11.496C484.906 14.7495 486.198 18.5821 486.363 22.544C486.921 22.296 487.418 22.11 487.977 21.861C486.604 20.6419 485.667 19.0072 485.308 17.206C484.874 17.578 484.377 17.889 483.943 18.261C484.513 18.6043 484.959 19.1204 485.216 19.7344C485.472 20.3483 485.526 21.0282 485.37 21.675C485.929 21.489 486.549 21.365 487.108 21.175C485.594 19.1367 484.284 16.9538 483.198 14.658L481.898 15.958C483.636 17.075 485.932 28.185 490.339 23.158C491.953 21.296 491.022 18.938 489.967 17.013C488.179 13.8238 486.123 10.7922 483.822 7.951C483.139 7.082 481.836 8.199 482.332 9.068C484.742 13.1784 486.56 17.608 487.732 22.226L489.408 21.481C489.16 20.922 488.908 20.426 488.663 19.867L487.363 21.167V21.043C486.985 21.3526 486.592 21.6427 486.184 21.912C486.991 22.222 487.86 22.533 488.667 22.843C489.784 23.277 490.281 21.478 489.167 21.043C488.36 20.733 487.491 20.422 486.684 20.112C486.125 19.864 485.505 20.484 485.505 20.981C485.443 25.881 492.394 21.974 488.298 19.491C488.116 19.3987 487.91 19.3662 487.709 19.3983C487.507 19.4303 487.321 19.5252 487.177 19.6695C487.033 19.8137 486.938 19.9998 486.906 20.2013C486.873 20.4027 486.906 20.6091 486.998 20.791C487.246 21.35 487.498 21.846 487.743 22.405C488.177 23.398 489.667 22.653 489.419 21.66C488.223 16.8836 486.341 12.3055 483.833 8.068L482.343 9.185C483.708 10.985 485.012 12.785 486.253 14.647C486.753 15.392 487.246 16.137 487.68 16.947C488.051 17.5135 488.363 18.1167 488.611 18.747C489.604 20.047 488.859 20.795 486.311 20.919C485.442 20.236 485.318 17.94 484.946 16.947C484.548 15.8012 483.756 14.8337 482.712 14.216C481.843 13.716 481.098 14.716 481.412 15.516C482.484 17.8192 483.794 20.0036 485.322 22.033C485.432 22.2038 485.594 22.3346 485.784 22.4061C485.974 22.4776 486.182 22.4858 486.377 22.4297C486.572 22.3736 486.744 22.256 486.867 22.0945C486.99 21.9329 487.058 21.736 487.06 21.533C487.209 20.5557 487.064 19.5561 486.644 18.6611C486.224 17.7662 485.548 17.0161 484.701 16.506C484.018 16.006 483.149 16.816 483.336 17.561C483.8 19.6656 484.906 21.5742 486.501 23.023C486.638 23.145 486.807 23.2256 486.988 23.2555C487.169 23.2854 487.355 23.2632 487.524 23.1917C487.693 23.1202 487.838 23.0022 487.943 22.8515C488.048 22.7007 488.107 22.5233 488.115 22.34C487.945 18.0528 486.568 13.9007 484.143 10.361C484.024 10.1731 483.842 10.0344 483.629 9.96994C483.416 9.90553 483.187 9.9198 482.984 10.0101C482.781 10.1005 482.617 10.2609 482.522 10.462C482.427 10.6632 482.408 10.8918 482.467 11.106C483.132 14.2381 484.217 17.2657 485.695 20.106C485.812 20.2974 485.995 20.4396 486.209 20.5063C486.424 20.5729 486.655 20.5594 486.86 20.4682C487.065 20.3771 487.23 20.2145 487.324 20.0108C487.418 19.8071 487.435 19.5762 487.371 19.361C486.309 15.3355 484.897 11.4106 483.151 7.631C482.592 7.941 482.096 8.252 481.537 8.562C484.02 13.093 486.688 17.437 489.543 21.72C489.729 21.286 489.915 20.789 490.102 20.355C487.707 20.9016 485.406 21.8011 483.275 23.024C483.775 23.272 484.206 23.583 484.702 23.831C483.855 16.8742 482.507 9.98766 480.668 3.225C480.42 2.232 478.62 2.725 478.93 3.908L478.914 3.92Z" fill="#1D1E1F"/>
<path d="M497 31C499.5 38 496.5 38 490 43C480.887 43 478.5 40.6274 478.5 34C478.5 30.85 480.456 29.0482 482 27.5C483.705 25.7909 485.219 24.5 490 24.5C499.113 24.5 491 25 497 31Z" fill="#FBDD91"/>
<path d="M478.977 35.573C477.55 32.035 480.963 28.746 483.694 27.132C486.337 25.5828 489.394 24.889 492.447 25.146C493.316 25.208 493.564 24.153 493.13 23.532C492.571 22.849 492.075 22.167 491.516 21.484C491.381 21.3555 491.212 21.2692 491.029 21.2357C490.845 21.2022 490.657 21.2231 490.485 21.2957C490.313 21.3682 490.167 21.4894 490.063 21.6442C489.96 21.799 489.904 21.9808 489.902 22.167C489.716 20.926 487.978 21.667 487.171 21.667C484.192 21.605 485.371 21.046 485.247 19.367C484.999 17.319 483.819 15.209 483.323 13.222C482.622 10.3278 482.165 7.37974 481.958 4.409C481.896 3.23 480.034 3.23 480.096 4.409C480.311 7.93129 480.872 11.4238 481.772 14.836C482.206 16.326 483.262 18.188 483.072 19.736C483.01 20.419 482.513 20.915 482.513 21.598C482.603 22.2631 482.94 22.8697 483.458 23.2963C483.976 23.7229 484.636 23.9378 485.306 23.898C486.733 23.898 488.161 23.588 489.651 23.65C490.458 23.712 490.582 23.898 491.327 23.402C491.465 23.3187 491.578 23.1998 491.655 23.0579C491.731 22.9159 491.768 22.756 491.761 22.595C491.761 22.471 491.699 22.285 491.699 22.161C491.141 22.409 490.644 22.595 490.085 22.844C490.644 23.527 491.14 24.209 491.699 24.892C491.947 24.333 492.133 23.837 492.382 23.278C486.3 22.906 473.824 27.933 477.114 36.064C477.614 37.181 479.414 36.685 478.976 35.564L478.977 35.573Z" fill="#1D1E1F"/>
<path d="M482.515 25.146C479.669 27.3596 477.78 30.581 477.239 34.146C476.867 37.311 478.791 40.104 481.149 42.09C487.48 47.49 494.249 41.469 498.217 36.38C498.962 35.449 497.658 34.146 496.917 35.08C493.69 39.238 488.042 45.321 482.517 40.79C480.096 38.804 478.607 36.073 479.417 32.908C480.167 30.3284 481.735 28.0628 483.886 26.453C484.817 25.708 483.451 24.405 482.52 25.153L482.515 25.146Z" fill="#1D1E1F"/>
<path d="M478.418 1.624C494.712 21.489 503.402 46.505 502.934 72.193C502.945 72.4325 503.048 72.6584 503.222 72.8239C503.395 72.9895 503.626 73.0818 503.865 73.0818C504.105 73.0818 504.335 72.9895 504.509 72.8239C504.682 72.6584 504.785 72.4325 504.796 72.193C505.21 46.0213 496.325 20.5517 479.722 0.316C478.977 -0.615 477.674 0.688 478.422 1.616L478.418 1.624Z" fill="#1D1E1F"/>
<path d="M501.071 48.112C501.076 48.0783 501.072 48.0442 501.061 48.012C501.051 47.9798 501.033 47.9504 501.009 47.926C500.885 48.298 500.699 48.609 500.575 48.981C500.637 48.919 500.699 48.919 500.761 48.857C500.336 48.7245 499.901 48.621 499.461 48.547C500.33 49.912 500.33 52.395 500.578 53.947C500.888 55.995 501.199 58.105 501.447 60.154C501.819 63.692 502.006 67.23 502.13 70.829C502.142 71.0684 502.245 71.2944 502.418 71.4599C502.591 71.6255 502.822 71.7178 503.061 71.7178C503.301 71.7178 503.532 71.6255 503.705 71.4599C503.878 71.2944 503.981 71.0684 503.992 70.829C503.868 66.484 503.62 62.14 503.061 57.795C502.875 56.119 502.627 54.506 502.316 52.83C502.068 51.154 502.006 48.982 501.075 47.554C500.941 47.3441 500.73 47.1946 500.488 47.1368C500.246 47.079 499.99 47.1174 499.775 47.244C499.713 47.306 499.651 47.306 499.589 47.368C499.409 47.4691 499.267 47.6284 499.189 47.8199C499.11 48.0114 499.098 48.224 499.155 48.423C499.151 48.4567 499.155 48.4908 499.165 48.523C499.176 48.5552 499.194 48.5846 499.217 48.609C499.285 48.8545 499.447 49.0633 499.668 49.1899C499.889 49.3164 500.151 49.3503 500.397 49.2843C500.643 49.2183 500.853 49.0576 500.981 48.8374C501.108 48.6172 501.144 48.3553 501.079 48.109L501.071 48.112Z" fill="#1D1E1F"/>
<path d="M479.536 4.293C481.7 7.0087 483.342 10.1024 484.377 13.417C484.749 14.534 486.549 14.038 486.177 12.917C485.037 9.30071 483.226 5.93158 480.839 2.986C480.156 1.993 478.791 3.358 479.539 4.286L479.536 4.293Z" fill="#1D1E1F"/>
<path d="M429.448 13.85C437.948 16.271 446.516 18.381 455.205 20.119C456.384 20.367 456.881 18.567 455.705 18.319C447.016 16.581 438.451 14.471 429.948 12.05C428.831 11.678 428.334 13.478 429.448 13.85Z" fill="#1D1E1F"/>
<path d="M407.726 42.835C424.015 41.5219 440.118 38.4842 455.765 33.773C456.882 33.401 456.448 31.601 455.265 31.973C439.784 36.6482 423.845 39.6445 407.723 40.91C406.544 41.034 406.544 42.896 407.723 42.834L407.726 42.835Z" fill="#1D1E1F"/>
<path d="M466.814 43.767C463.113 46.0643 459.605 48.6589 456.325 51.525C455.394 52.332 456.759 53.635 457.625 52.825C460.809 50.0958 464.19 47.6063 467.742 45.377C467.949 45.2499 468.098 45.0472 468.157 44.812C468.217 44.5768 468.182 44.3276 468.061 44.1174C467.94 43.9072 467.741 43.7526 467.508 43.6864C467.274 43.6202 467.024 43.6477 466.811 43.763L466.814 43.767Z" fill="#1D1E1F"/>
<path d="M467.992 63.69C454.71 75.172 441.366 86.654 428.084 98.137C427.153 98.944 428.518 100.247 429.384 99.437C442.666 87.955 456.01 76.473 469.292 64.99C470.223 64.245 468.92 62.88 467.992 63.69V63.69Z" fill="#1D1E1F"/>
<path d="M473.018 77.84C468.984 85.54 464.887 93.294 460.853 100.991C460.294 102.046 461.908 102.977 462.467 101.922C466.501 94.222 470.597 86.468 474.632 78.771C475.191 77.716 473.577 76.785 473.018 77.84Z" fill="#1D1E1F"/>
<path d="M483.942 82.185C481.904 94.2986 480.64 106.53 480.156 118.804C480.094 119.983 481.956 119.983 482.018 118.804C482.512 106.698 483.756 94.6342 485.742 82.682C485.928 81.503 484.128 81.006 483.942 82.182V82.185Z" fill="#1D1E1F"/>
<path d="M539.554 22.664C555.443 20.554 569.78 30.919 577.6 44.077C586.848 59.593 587.158 78.772 586.724 96.336C585.793 136.12 584.117 175.842 582.503 215.564C579.276 295.564 575.283 375.567 570.524 455.573C567.857 500.506 564.94 545.421 561.773 590.318C561.587 592.739 565.311 592.676 565.497 590.318C571.269 508.329 576.236 426.32 580.397 344.289C584.555 262.424 588.217 180.497 590.452 98.57C590.952 79.392 590.824 58.351 580.397 41.47C571.897 27.691 556.44 16.77 539.62 19.002C537.199 19.25 537.199 22.974 539.558 22.664H539.554Z" fill="#1D1E1F"/>
<path d="M536.201 21.857C540.657 21.8115 545.106 22.2054 549.484 23.033C554.015 24.088 557.491 26.633 561.525 28.681C562.58 29.24 563.511 27.626 562.456 27.067C558.235 24.957 554.636 22.35 549.981 21.233C545.444 20.3365 540.827 19.9009 536.202 19.933C535.023 19.933 535.023 21.795 536.202 21.857H536.201Z" fill="#1D1E1F"/>
<path d="M536.201 23.099C549.463 24.4064 562.131 29.2507 572.882 37.126C573.875 37.809 574.806 36.195 573.813 35.512C562.752 27.524 549.777 22.6008 536.201 21.241C535.022 21.117 535.022 22.979 536.201 23.103V23.099Z" fill="#1D1E1F"/>
<path d="M533.533 18.754C539.32 19.88 545.039 21.3306 550.663 23.099C551.78 23.471 552.277 21.671 551.163 21.299C545.543 19.5164 539.823 18.0656 534.033 16.954C532.854 16.706 532.357 18.506 533.533 18.754Z" fill="#1D1E1F"/>
<path d="M534.899 18.568C542.112 19.3747 549.224 20.9137 556.125 23.161C557.242 23.533 557.739 21.733 556.625 21.361C549.562 19.0707 542.282 17.5122 534.899 16.71C533.72 16.586 533.72 18.448 534.899 18.572V18.568Z" fill="#1D1E1F"/>
<path d="M512.059 7.83C521.569 11.1592 530.736 15.3992 539.43 20.491C539.644 20.6063 539.894 20.6338 540.127 20.5676C540.361 20.5014 540.559 20.3468 540.681 20.1366C540.802 19.9264 540.836 19.6772 540.777 19.442C540.717 19.2068 540.568 19.0041 540.361 18.877C531.52 13.6836 522.185 9.37991 512.493 6.029C511.438 5.657 510.941 7.457 512.059 7.829V7.83Z" fill="#1D1E1F"/>
<path d="M509.452 7.209C519.171 10.788 528.576 15.1698 537.568 20.309C537.782 20.4243 538.032 20.4518 538.265 20.3856C538.499 20.3194 538.697 20.1648 538.818 19.9546C538.939 19.7444 538.974 19.4952 538.914 19.26C538.855 19.0248 538.706 18.8221 538.499 18.695C529.34 13.4946 519.771 9.05242 509.887 5.413C508.832 5.041 508.335 6.841 509.452 7.213V7.209Z" fill="#1D1E1F"/>
<path d="M523.851 53.449C529.5 43.5175 534.416 33.1871 538.561 22.54C538.995 21.423 537.196 20.926 536.761 22.04C532.666 32.537 527.812 42.7219 522.238 52.514C521.68 53.507 523.293 54.438 523.852 53.445L523.851 53.449Z" fill="#1D1E1F"/>
<path d="M536.015 21.795C534.91 23.6329 534.074 25.6198 533.532 27.695C533.466 27.9337 533.497 28.1889 533.619 28.4046C533.741 28.6203 533.943 28.7787 534.182 28.845C534.421 28.9113 534.676 28.8801 534.892 28.7582C535.107 28.6363 535.266 28.4337 535.332 28.195C535.824 26.2704 536.599 24.4296 537.632 22.733C537.747 22.5195 537.775 22.2694 537.709 22.036C537.642 21.8025 537.488 21.6041 537.278 21.4828C537.068 21.3616 536.818 21.3271 536.583 21.3867C536.348 21.4463 536.145 21.5953 536.018 21.802L536.015 21.795Z" fill="#1D1E1F"/>
<path d="M722.253 641H672.526C660.25 629.708 651.473 618.825 658.5 609.791C658.5 607.194 659.575 604.704 661.488 602.868C663.4 601.032 665.995 600 668.7 600H726.078C728.783 600 731.378 601.032 733.29 602.868C735.203 604.704 736.278 607.194 736.278 609.791C738.954 620.084 734.174 630.489 722.253 641Z" fill="#5D6546"/>
<path d="M713.592 587.317C713.117 587.338 712.646 587.219 712.243 586.976C711.841 586.734 711.527 586.379 711.343 585.961C711.159 585.542 711.115 585.08 711.217 584.637C711.318 584.194 711.56 583.791 711.909 583.483L712.068 582.88C712.047 582.832 712.026 582.784 712.005 582.736C711.526 581.658 710.723 580.738 709.697 580.094C708.671 579.449 707.468 579.107 706.239 579.111C705.01 579.116 703.809 579.466 702.789 580.118C701.768 580.77 700.972 581.695 700.501 582.776C698.62 587.093 696.224 591.417 695.634 595.98C695.375 597.998 695.484 600.043 695.958 602.024C691.539 592.842 689.244 582.862 689.23 572.762C689.229 570.227 689.376 567.694 689.672 565.175C689.917 563.11 690.256 561.06 690.69 559.024C693.059 547.979 698.144 537.627 705.529 528.817C709.103 526.96 711.994 524.103 713.811 520.633C714.469 519.385 714.935 518.054 715.193 516.679C714.789 516.73 713.672 510.881 713.976 510.522C713.415 509.71 712.409 509.306 711.795 508.514C708.743 504.572 704.538 505.261 702.343 510.616C697.654 512.871 697.609 516.609 700.486 520.205C702.316 522.492 702.568 525.588 704.174 528.037C704.009 528.238 703.837 528.433 703.672 528.635C700.651 532.334 698.018 536.307 695.811 540.496C696.348 535.803 695.707 531.056 693.942 526.645C692.153 522.535 688.8 519.072 685.847 515.519C682.3 511.25 675.027 513.113 674.402 518.524C674.396 518.576 674.39 518.629 674.384 518.681C674.823 518.917 675.252 519.167 675.672 519.432C676.2 519.768 676.609 520.247 676.845 520.808C677.082 521.369 677.135 521.985 676.998 522.576C676.86 523.166 676.539 523.703 676.076 524.116C675.613 524.529 675.029 524.8 674.402 524.892L674.338 524.901C674.494 526.407 674.77 527.899 675.164 529.365C671.376 543.319 679.554 548.402 691.232 548.63C691.49 548.756 691.741 548.882 691.999 549.002C689.782 554.987 688.391 561.222 687.861 567.549C687.562 571.282 687.579 575.031 687.914 578.761L687.894 578.629C687.048 574.481 684.725 570.739 681.318 568.034C676.257 564.073 669.106 562.615 663.646 559.432C663.066 559.077 662.391 558.888 661.702 558.886C661.012 558.885 660.336 559.071 659.754 559.423C659.172 559.775 658.708 560.279 658.416 560.874C658.125 561.469 658.018 562.131 658.108 562.782C658.116 562.829 658.123 562.875 658.131 562.921C658.945 563.237 659.737 563.601 660.504 564.011C660.942 564.246 661.372 564.496 661.792 564.761C662.319 565.097 662.728 565.577 662.965 566.138C663.201 566.699 663.255 567.315 663.117 567.905C662.98 568.495 662.659 569.032 662.196 569.445C661.732 569.859 661.149 570.129 660.522 570.221L660.457 570.231C660.411 570.237 660.371 570.243 660.325 570.25C661.716 573.412 663.668 576.324 666.095 578.856C668.464 591.037 678.638 592.193 689.52 588.646H689.527C690.721 593.588 692.451 598.398 694.689 603H713.13C713.196 602.805 713.256 602.603 713.315 602.408C711.608 602.51 709.895 602.413 708.213 602.119C709.581 600.519 710.949 598.908 712.317 597.309C712.348 597.279 712.377 597.247 712.403 597.214C713.097 596.396 713.798 595.584 714.492 594.765L714.492 594.764C714.529 592.255 714.227 589.753 713.593 587.317L713.592 587.317Z" fill="#ADB78F"/>
<path d="M523.044 580.822C521.43 583.491 523.727 586.594 529.002 598.262C537.07 616.075 536.702 620.171 535.395 622.902C533.223 627.371 528.568 627.929 529.002 630.102C529.623 633.267 539.864 635.688 543.463 631.778C545.077 630.04 544.828 627.62 544.332 622.841C542.098 603.041 541.663 601.614 540.918 595.594C539.618 584.919 540.297 582.188 537.504 579.829C533.347 576.54 525.279 577.223 523.044 580.822Z" fill="#161616" stroke="#161616" stroke-width="3" stroke-miterlimit="10"/>
<path d="M619.62 578.091C624.275 574.802 632.406 578.277 636.626 582.373C640.164 585.725 639.357 587.959 643.453 590.873C646.511 593.162 650.247 594.363 654.066 594.287C658.224 594.039 659.031 591.987 662.135 592.611C664.307 592.983 665.235 594.225 669.397 598.135C675.914 604.342 678.334 605.769 677.897 606.635C677.463 607.442 675.414 607.007 666.415 605.766C659.836 604.835 656.422 604.401 654.064 604.276C648.664 604.028 648.416 604.71 640.471 604.897C632.278 605.145 628.12 605.145 625.141 603.597C618.5 600.121 616.762 592.425 616.641 591.68C616.454 590.691 614.654 581.568 619.62 578.091Z" fill="#161616" stroke="#161616" stroke-width="3" stroke-miterlimit="10"/>
<path d="M529.438 554.447C533.472 554.571 535.21 559.288 538.81 563.384C548.182 574.184 564.51 574.556 577.91 574.866C603.233 575.425 610.06 565.804 622.163 572.321C628.804 575.921 635.073 583.307 634.949 591.437C634.763 602.05 623.649 609.56 615.833 612.291C608.882 614.712 605.096 613.222 586.041 609.746C555.381 604.098 549.298 604.967 537.568 598.264C530.868 594.416 524.844 589.513 520.996 582.127C519.382 579.027 516.838 573.872 518.017 567.666C519.197 561.147 524.41 554.259 529.438 554.447Z" fill="#161616" stroke="#161616" stroke-width="3" stroke-miterlimit="10"/>
<path d="M618.75 572.754C620.05 570.954 625.205 575.485 630.667 573.188C635.322 571.202 637.432 565.43 638.736 561.706C641.157 555.065 639.543 552.706 642.15 550.224C644.633 547.803 646.805 549.355 654.067 547.245C658.967 545.817 662.943 544.7 665.115 541.287C666.853 538.556 665.615 537.187 666.791 530.239C667.163 528.129 668.591 519.688 670.639 519.626C672.129 519.564 673.929 524.033 674.053 528.126C674.115 529.802 673.867 530.981 671.508 538.739C670.018 543.58 669.274 546.001 668.963 546.373C665.922 550.159 661.887 548.297 654.063 551.897C650.277 553.635 646.615 555.311 644.691 559.097C642.953 562.573 644.443 564.124 642.581 569.276C641.481 572.299 639.746 575.05 637.492 577.345C635.444 579.393 631.285 583.427 626.444 582.434C620.984 581.443 617.446 574.554 618.75 572.754Z" fill="#161616" stroke="#161616" stroke-width="3" stroke-miterlimit="10"/>
<path d="M604.289 602.111C602.477 605.493 601.741 609.347 602.179 613.159C602.924 618.559 606.279 623.214 608.572 626.317C611.737 630.724 613.599 631.655 613.227 633.517C612.544 637.617 603.359 637.924 603.421 639.91C603.545 641.896 612.855 642.889 619.993 642.455C625.331 642.145 626.572 641.214 627.255 640.345C628.745 638.235 627.069 635.752 626.386 630.166C625.886 626.194 626.262 623.401 626.82 618.684C627.751 610.926 629.241 610.429 629.799 604.657C630.233 600.064 630.978 592.43 627.254 589.757C622.164 586.16 609.193 592.429 604.289 602.111Z" fill="#161616" stroke="#161616" stroke-width="3" stroke-miterlimit="10"/>
<path d="M477.985 562.948C478.978 567.975 484.44 571.141 492.446 574.43C500.946 577.968 525.031 587.898 529.437 581.257C529.895 580.409 530.136 579.459 530.136 578.495C530.136 577.531 529.895 576.581 529.437 575.733C527.575 572.195 522.486 572.568 513.672 571.078C505.972 569.778 498.838 568.595 491.572 564.685C484.872 561.147 480.897 556.865 478.786 558.292C477.302 559.348 477.923 562.637 477.985 562.948Z" fill="#161616" stroke="#161616" stroke-width="3" stroke-miterlimit="10"/>
<path d="M468.303 541.038C470.235 544.275 472.617 547.222 475.378 549.789C476.247 550.596 477.55 549.289 476.678 548.489C474.038 546.03 471.761 543.209 469.913 540.11C469.786 539.903 469.583 539.754 469.348 539.695C469.113 539.635 468.864 539.67 468.653 539.791C468.443 539.912 468.289 540.111 468.222 540.344C468.156 540.577 468.184 540.827 468.299 541.041L468.303 541.038Z" fill="#161616"/>
<path d="M460.296 545.693C462.188 548 464.679 549.739 467.496 550.72C468.613 551.154 469.11 549.355 467.996 548.92C465.495 548.014 463.286 546.448 461.603 544.389C460.858 543.458 459.555 544.761 460.303 545.689L460.296 545.693Z" fill="#161616"/>
<path d="M460.607 557.919C462.345 558.105 464.083 558.229 465.883 558.419C467.062 558.543 467.062 556.681 465.883 556.557C464.145 556.371 462.407 556.247 460.607 556.057C459.428 555.933 459.428 557.795 460.607 557.919Z" fill="#161616"/>
<path d="M511.563 545.507C508.278 546.799 505.251 548.67 502.626 551.031C499.771 553.638 497.04 556.12 496.668 559.531C495.985 565.738 503.557 571.631 509.454 573.992C510.509 574.426 522.984 579.143 529.874 571.882C534.529 566.917 533.474 559.841 533.288 558.724C531.86 549.476 523.544 545.132 522.675 544.697C520.565 541.842 518.392 539.049 516.282 536.197C514.728 539.297 513.176 542.404 511.563 545.507Z" fill="#161616" stroke="#161616" stroke-width="3" stroke-miterlimit="10"/>
<path d="M505.79 553.886C506.231 555.191 507.077 556.322 508.204 557.114C509.331 557.907 510.681 558.32 512.059 558.293C513.238 558.231 513.238 556.369 512.059 556.431C511.088 556.465 510.131 556.189 509.327 555.642C508.523 555.095 507.915 554.306 507.59 553.39C507.156 552.273 505.356 552.769 505.79 553.89V553.886Z" fill="white"/>
<path d="M496.729 558.291C497.288 558.291 497.536 558.477 497.598 558.912C497.412 559.098 497.288 559.347 497.098 559.533C496.726 559.657 496.664 559.471 496.539 559.347C496.477 559.285 496.539 559.223 496.477 559.285C496.415 559.347 496.415 559.533 496.353 559.657C496.725 559.471 497.098 559.223 497.47 559.036C497.478 559.036 497.486 559.037 497.494 559.04C497.502 559.044 497.508 559.048 497.514 559.054C497.52 559.06 497.524 559.067 497.528 559.074C497.531 559.082 497.532 559.09 497.532 559.098C497.594 559.16 497.532 559.16 497.532 559.036C497.466 558.806 497.311 558.611 497.101 558.495C496.891 558.379 496.644 558.351 496.413 558.417C496.183 558.483 495.988 558.638 495.872 558.848C495.756 559.058 495.728 559.306 495.794 559.536C495.865 559.844 496.018 560.127 496.236 560.356C496.455 560.585 496.731 560.751 497.035 560.836C497.265 560.899 497.511 560.869 497.72 560.753C497.929 560.637 498.084 560.444 498.152 560.215C498.29 559.957 498.362 559.669 498.362 559.377C498.362 559.085 498.29 558.797 498.152 558.539C497.998 558.261 497.756 558.043 497.463 557.919C497.17 557.795 496.845 557.773 496.538 557.856C496.244 557.962 495.999 558.172 495.85 558.447C495.701 558.722 495.659 559.042 495.731 559.346C495.807 559.649 495.999 559.911 496.266 560.073C496.533 560.236 496.854 560.287 497.158 560.215C497.377 560.125 497.557 559.961 497.666 559.751C497.775 559.542 497.807 559.3 497.755 559.069C497.703 558.839 497.571 558.634 497.382 558.491C497.193 558.349 496.96 558.278 496.724 558.291H496.729Z" fill="white"/>
<path d="M496.357 559.906C496.587 560.649 496.974 561.333 497.494 561.911C498.014 562.489 498.653 562.947 499.367 563.254C500.081 563.561 500.853 563.709 501.63 563.688C502.407 563.667 503.171 563.478 503.867 563.133C504.922 562.574 503.991 560.961 502.936 561.519C502.488 561.725 502 561.834 501.506 561.838C501.012 561.841 500.523 561.74 500.071 561.541C499.62 561.341 499.215 561.048 498.885 560.68C498.555 560.313 498.307 559.88 498.157 559.409C498.091 559.17 497.933 558.968 497.717 558.846C497.501 558.724 497.246 558.693 497.007 558.759C496.769 558.825 496.566 558.984 496.444 559.199C496.322 559.415 496.291 559.67 496.357 559.909V559.906Z" fill="white"/>
<path d="M75 508.5L179.5 509L180.5 520L169.5 521L184 526.5V545.5L185 550.5L202.5 551.5L203.5 564.5L188.5 569.5L201 572V584L218.5 583V595.5L166.5 621.5L81.5 609V596L49.5 590.5V578.5L75 572L73.5 570V557L60.5 554V539L46.5 537.5V525L75 520V508.5Z" fill="#F0F0F0"/>
<path d="M77.9697 507.522C79.3347 507.77 81.3217 508.143 83.8037 508.453C95.6587 510.191 104.104 510.129 114.527 510.253C120.796 510.315 130.043 510.501 141.65 510.936C154.001 510.067 166.414 509.198 178.765 508.267C161.697 506.529 144.629 504.729 127.565 502.991C110.99 504.48 94.4584 505.991 77.9697 507.522Z" fill="#6F7952"/>
<path d="M114.465 546.065L125.078 548.299C138.576 547.501 151.964 545.38 165.048 541.968C167.779 541.285 170.448 540.54 172.992 539.734C153.507 541.845 133.998 543.955 114.465 546.065Z" fill="#6B6B6B"/>
<path d="M78.7769 595.035C78.8389 600.249 78.9008 605.524 78.9628 610.735C107.637 614.397 136.333 618.059 165.048 621.721V606.025C182.613 598.205 200.157 590.385 217.68 582.564L202.97 580.33C202.411 581.199 201.853 582.068 201.356 582.999C180.067 589.578 158.779 596.178 137.49 602.799C117.941 600.186 98.3279 597.58 78.7769 595.035Z" fill="#6C3030"/>
<path d="M46.875 524.093C68.35 526.7 89.887 529.307 111.361 531.913C129.361 531.478 148.29 530.299 168.027 528.127C173.303 527.568 178.454 526.886 183.543 526.203C178.143 524.589 172.806 522.914 167.406 521.303C156.669 522.296 145.869 523.289 135.132 524.282C114.712 522.855 94.355 521.365 73.932 519.937C64.936 521.3 55.875 522.666 46.875 524.093Z" fill="#4F5933"/>
<path d="M127.499 562.14C134.14 563.133 140.843 564.126 147.484 565.119C165.855 560.34 184.165 555.619 202.536 550.844C196.454 549.913 190.436 549.044 184.351 548.113C165.359 552.83 146.408 557.506 127.499 562.14Z" fill="#262626"/>
<path d="M51.0957 577.905C79.3977 581.939 107.679 585.994 135.94 590.07C144.691 588.208 153.815 586.036 163.311 583.429C176.345 579.891 188.448 575.981 199.682 572.009L187.02 569.774C173.8 573.436 160.559 577.098 147.298 580.76C123.837 577.533 100.376 574.326 76.9147 571.14C68.3497 573.436 59.7227 575.674 51.0957 577.905Z" fill="#DFCDBD"/>
<path d="M74.0596 509.322V520.556C74.0707 520.796 74.1736 521.021 74.347 521.187C74.5204 521.353 74.7509 521.445 74.9906 521.445C75.2303 521.445 75.4608 521.353 75.6342 521.187C75.8075 521.021 75.9105 520.796 75.9216 520.556V509.322C75.9105 509.083 75.8075 508.857 75.6342 508.691C75.4608 508.526 75.2303 508.433 74.9906 508.433C74.7509 508.433 74.5204 508.526 74.347 508.691C74.1736 508.857 74.0707 509.083 74.0596 509.322V509.322Z" fill="#161616"/>
<path d="M75.3018 509.694C97.2728 510.439 119.302 511.122 141.278 511.866C142.457 511.928 142.457 510.066 141.278 510.004C119.307 509.259 97.2778 508.577 75.3018 507.832C74.0608 507.77 74.0608 509.632 75.3018 509.694V509.694Z" fill="#161616"/>
<path d="M75.3016 521.983C95.2869 522.355 115.251 523.286 135.195 524.776C136.374 524.838 136.374 522.976 135.195 522.914C115.271 521.487 95.3069 520.556 75.3016 520.121C75.1793 520.121 75.0583 520.145 74.9453 520.192C74.8324 520.239 74.7297 520.307 74.6433 520.394C74.5568 520.48 74.4883 520.583 74.4415 520.696C74.3947 520.809 74.3706 520.93 74.3706 521.052C74.3706 521.174 74.3947 521.295 74.4415 521.408C74.4883 521.521 74.5568 521.624 74.6433 521.71C74.7297 521.797 74.8324 521.865 74.9453 521.912C75.0583 521.959 75.1793 521.983 75.3016 521.983V521.983Z" fill="#161616"/>
<path d="M141.898 512.115C154.621 510.998 167.407 510.253 180.13 509.815C181.309 509.753 181.309 507.891 180.13 507.953C167.344 508.325 154.621 509.132 141.898 510.253C140.719 510.315 140.657 512.177 141.898 512.115Z" fill="#161616"/>
<path d="M135.505 524.839C150.463 523.349 165.483 521.922 180.441 520.432C181.62 520.308 181.62 518.446 180.441 518.57C165.483 520.06 150.463 521.487 135.505 522.977C134.326 523.101 134.326 524.963 135.505 524.839Z" fill="#161616"/>
<path d="M140.966 511.867C140.524 512.521 140.228 513.261 140.097 514.039C139.911 515.404 140.469 516.46 139.787 517.825C138.91 519.345 138.56 521.113 138.794 522.852C138.98 524.031 140.78 523.535 140.594 522.352C140.284 520.304 141.339 519.373 141.959 517.697C142.518 515.959 141.459 514.47 142.58 512.797C143.201 511.804 141.587 510.811 140.966 511.866V511.867Z" fill="#161616"/>
<path d="M75.5488 509.135C92.3068 506.835 109.127 505.225 126.07 504.17C127.249 504.108 127.249 502.246 126.07 502.308C109.003 503.363 92.0178 505.039 75.1138 507.335C73.8728 507.521 74.3687 509.259 75.5477 509.135H75.5488Z" fill="#161616"/>
<path d="M124.831 504.233C142.871 504.352 160.87 505.972 178.642 509.074C179.821 509.26 180.318 507.46 179.142 507.274C161.209 504.102 143.041 502.442 124.831 502.309C123.652 502.371 123.652 504.233 124.831 504.233Z" fill="#161616"/>
<path d="M78.9629 515.471C84.3009 516.712 89.8869 515.409 95.3479 515.471C101.453 515.628 107.545 516.126 113.595 516.961C114.774 517.085 114.774 515.223 113.595 515.099C107.947 514.478 102.237 513.799 96.5269 513.672C91.0029 513.548 84.9209 514.972 79.4589 513.734C79.3448 513.701 79.2253 513.691 79.1073 513.705C78.9894 513.718 78.8751 513.754 78.7712 513.812C78.6673 513.869 78.5758 513.947 78.5018 514.04C78.4278 514.132 78.3728 514.239 78.3399 514.353C78.3071 514.467 78.2971 514.587 78.3104 514.705C78.3238 514.823 78.3602 514.937 78.4177 515.041C78.4752 515.145 78.5525 515.236 78.6454 515.31C78.7383 515.384 78.8448 515.439 78.9589 515.472L78.9629 515.471Z" fill="#161616"/>
<path d="M103.541 519.5C113.041 519.81 122.595 520.245 132.091 520.8C133.27 520.862 133.27 519 132.091 518.938C122.591 518.379 113.037 517.945 103.541 517.638C102.362 517.576 102.362 519.438 103.541 519.5Z" fill="#161616"/>
<path d="M119.058 516.21C124.52 516.644 130.044 517.203 135.505 517.886C136.684 518.01 136.684 516.148 135.505 516.024C130.043 515.341 124.581 514.783 119.058 514.348C117.817 514.224 117.879 516.086 119.058 516.21Z" fill="#161616"/>
<path d="M145.56 517.142C149.905 517.763 154.125 516.707 158.408 516.087C163.497 515.28 168.649 514.66 173.8 514.349C174.979 514.287 174.979 512.425 173.8 512.487C169.642 512.735 165.483 513.232 161.387 513.787C156.422 514.47 151.146 516.087 146.119 515.401C144.878 515.153 144.381 516.953 145.56 517.139V517.142Z" fill="#161616"/>
<path d="M153.38 520.366C157.228 520.801 160.766 519.435 164.49 518.69C168.841 517.803 173.269 517.346 177.71 517.325C177.949 517.314 178.175 517.211 178.341 517.038C178.506 516.864 178.599 516.634 178.599 516.394C178.599 516.154 178.506 515.924 178.341 515.75C178.175 515.577 177.949 515.474 177.71 515.463C173.884 515.514 170.067 515.846 166.29 516.456C162.069 517.201 157.725 519.063 153.38 518.566C152.201 518.38 152.201 520.242 153.38 520.366V520.366Z" fill="#161616"/>
<path d="M178.517 510.563C178.579 513.728 178.641 516.832 178.765 519.997C178.776 520.236 178.879 520.462 179.052 520.628C179.225 520.793 179.456 520.886 179.696 520.886C179.935 520.886 180.166 520.793 180.339 520.628C180.513 520.462 180.615 520.236 180.627 519.997C180.565 516.832 180.503 513.728 180.379 510.563C180.379 510.441 180.355 510.32 180.308 510.207C180.261 510.094 180.192 509.991 180.106 509.905C180.019 509.818 179.917 509.75 179.804 509.703C179.691 509.656 179.57 509.632 179.448 509.632C179.325 509.632 179.204 509.656 179.091 509.703C178.978 509.75 178.876 509.818 178.789 509.905C178.703 509.991 178.634 510.094 178.587 510.207C178.541 510.32 178.517 510.441 178.517 510.563V510.563Z" fill="#161616"/>
<path d="M45.5088 524.528C45.5708 528.687 45.4468 532.845 45.1368 537.003C45.0748 538.182 46.9368 538.182 46.9988 537.003C47.3088 532.844 47.4328 528.686 47.3708 524.528C47.3088 523.287 45.4468 523.287 45.5088 524.528Z" fill="#161616"/>
<path d="M46.4409 538.802C68.1639 541.533 89.9488 543.892 111.796 546.002C112.975 546.126 112.975 544.264 111.796 544.14C89.9488 542.03 68.1639 539.671 46.4409 536.94C45.1999 536.816 45.2619 538.678 46.4409 538.802Z" fill="#161616"/>
<path d="M111.424 532.72C111.238 536.692 110.99 540.602 110.803 544.575C110.741 545.754 112.603 545.754 112.665 544.575C112.851 540.603 113.099 536.693 113.286 532.72C113.348 531.541 111.486 531.541 111.424 532.72Z" fill="#161616"/>
<path d="M112.355 533.094C136.312 532.161 160.228 530.402 184.103 527.818C185.282 527.694 185.282 525.832 184.103 525.956C160.27 528.501 136.354 530.259 112.355 531.232C111.176 531.294 111.176 533.156 112.355 533.094Z" fill="#161616"/>
<path d="M112.666 546.5C136.313 543.707 160.022 541.245 183.793 539.114C184.972 538.99 184.972 537.128 183.793 537.252C160.084 539.424 136.375 541.886 112.666 544.638C111.487 544.762 111.487 546.624 112.666 546.5Z" fill="#161616"/>
<path d="M183.296 527.569C183.296 530.921 183.358 534.269 183.358 537.624C183.369 537.864 183.472 538.089 183.645 538.255C183.819 538.421 184.049 538.513 184.289 538.513C184.529 538.513 184.759 538.421 184.932 538.255C185.106 538.089 185.209 537.864 185.22 537.624C185.22 534.272 185.158 530.924 185.158 527.569C185.158 527.322 185.06 527.085 184.885 526.911C184.711 526.736 184.474 526.638 184.227 526.638C183.98 526.638 183.743 526.736 183.569 526.911C183.394 527.085 183.296 527.322 183.296 527.569Z" fill="#161616"/>
<path d="M46.6876 524.405C55.9976 523.164 65.3076 522.046 74.6796 521.178C75.8586 521.054 75.8586 519.192 74.6796 519.316C65.1796 520.185 55.6876 521.302 46.1916 522.605C45.0126 522.729 45.5086 524.529 46.6916 524.405H46.6876Z" fill="#161616"/>
<path d="M47.62 525.645C69.0947 527.196 90.5073 529.43 111.858 532.345C113.037 532.531 113.534 530.731 112.358 530.545C90.883 527.628 69.284 525.331 47.623 523.78C46.444 523.718 46.444 525.58 47.623 525.642L47.62 525.645Z" fill="#161616"/>
<path d="M167.221 522.481C172.823 523.527 178.341 524.979 183.733 526.825C184.85 527.197 185.347 525.398 184.233 525.025C178.836 523.2 173.319 521.748 167.723 520.68C166.544 520.432 166.047 522.232 167.223 522.48L167.221 522.481Z" fill="#161616"/>
<path d="M56.8047 534.211C67.9767 533.652 78.6517 537.563 89.7617 537.749C90.0011 537.738 90.2271 537.635 90.3926 537.462C90.5581 537.288 90.6505 537.058 90.6505 536.818C90.6505 536.578 90.5581 536.348 90.3926 536.174C90.2271 536.001 90.0011 535.898 89.7617 535.887C78.6517 535.701 67.9147 531.787 56.8047 532.349C55.6257 532.411 55.6257 534.273 56.8047 534.211Z" fill="#161616"/>
<path d="M78.1569 531.79C86.3499 534.831 95.2249 532.969 103.666 534.831C104.845 535.079 105.342 533.279 104.166 533.031C95.7249 531.169 86.8499 533.031 78.6569 529.99C77.5399 529.556 77.0429 531.356 78.1569 531.79Z" fill="#161616"/>
<path d="M116.326 539.92C136.932 535.265 158.345 534.769 179.326 533.527C180.505 533.465 180.505 531.603 179.326 531.665C158.099 532.965 136.626 533.403 115.833 538.12C114.654 538.368 115.15 540.168 116.333 539.92H116.326Z" fill="#161616"/>
<path d="M150.773 538.369C158.09 538.559 165.404 537.871 172.558 536.321C173.737 536.073 173.241 534.273 172.058 534.521C165.064 536.017 157.919 536.684 150.769 536.507C149.59 536.445 149.59 538.307 150.769 538.369H150.773Z" fill="#161616"/>
<path d="M58.668 539.796V553.696C58.6791 553.935 58.782 554.161 58.9554 554.327C59.1288 554.492 59.3593 554.585 59.599 554.585C59.8387 554.585 60.0692 554.492 60.2426 554.327C60.4159 554.161 60.5189 553.935 60.53 553.696V539.796C60.5189 539.557 60.4159 539.331 60.2426 539.165C60.0692 539 59.8387 538.907 59.599 538.907C59.3593 538.907 59.1288 539 58.9554 539.165C58.782 539.331 58.6791 539.557 58.668 539.796V539.796Z" fill="#161616"/>
<path d="M59.351 554.879C69.406 557.858 80.515 557.92 90.942 558.913C101.99 559.968 113.099 561.085 124.147 562.14C125.326 562.264 125.326 560.402 124.147 560.278C113.472 559.223 102.796 558.23 92.121 557.178C81.508 556.123 70.088 556.123 59.847 553.078C59.6142 553.029 59.3715 553.071 59.1683 553.194C58.9651 553.318 58.8166 553.514 58.7529 553.744C58.6892 553.973 58.7152 554.218 58.8256 554.428C58.9359 554.639 59.1223 554.8 59.347 554.878L59.351 554.879Z" fill="#161616"/>
<path d="M124.085 547.741C124.147 552.024 124.147 556.241 124.023 560.527C124.034 560.767 124.137 560.992 124.31 561.158C124.484 561.324 124.714 561.416 124.954 561.416C125.194 561.416 125.424 561.324 125.598 561.158C125.771 560.992 125.874 560.767 125.885 560.527C126.009 556.244 126.009 552.027 125.947 547.741C125.947 547.494 125.849 547.257 125.674 547.083C125.5 546.908 125.263 546.81 125.016 546.81C124.769 546.81 124.532 546.908 124.358 547.083C124.183 547.257 124.085 547.494 124.085 547.741Z" fill="#161616"/>
<path d="M114.155 547.43C117.584 547.741 120.986 548.301 124.334 549.106C124.452 549.139 124.575 549.148 124.697 549.133C124.819 549.118 124.937 549.08 125.043 549.019C125.15 548.959 125.244 548.878 125.32 548.781C125.395 548.685 125.451 548.574 125.484 548.456C125.517 548.338 125.526 548.214 125.511 548.093C125.496 547.971 125.457 547.853 125.397 547.746C125.337 547.64 125.256 547.546 125.159 547.47C125.063 547.395 124.952 547.339 124.834 547.306C121.326 546.451 117.757 545.87 114.159 545.568C112.918 545.506 112.918 547.368 114.159 547.43H114.155Z" fill="#161616"/>
<path d="M125.265 548.734C142.666 547.325 159.943 544.67 176.965 540.789C178.144 540.541 177.648 538.741 176.465 538.989C159.606 542.824 142.496 545.458 125.265 546.872C124.086 546.934 124.086 548.796 125.265 548.734Z" fill="#161616"/>
<path d="M125.265 562.389C145.002 558.603 164.615 553.948 183.917 548.424C184.155 548.358 184.358 548.199 184.48 547.984C184.602 547.768 184.633 547.513 184.567 547.274C184.5 547.035 184.342 546.833 184.126 546.711C183.911 546.589 183.655 546.558 183.417 546.624C164.053 552.146 144.505 556.865 124.768 560.589C123.651 560.837 124.147 562.637 125.268 562.389H125.265Z" fill="#161616"/>
<path d="M182.986 538.43C183.059 541.515 182.976 544.602 182.738 547.678C182.614 548.857 184.476 548.857 184.6 547.678C184.837 544.601 184.919 541.515 184.848 538.43C184.837 538.191 184.734 537.965 184.56 537.799C184.387 537.634 184.157 537.541 183.917 537.541C183.677 537.541 183.447 537.634 183.273 537.799C183.1 537.965 182.997 538.191 182.986 538.43V538.43Z" fill="#161616"/>
<path d="M176.965 540.79C179.079 540.77 181.183 540.499 183.234 539.983C183.472 539.917 183.675 539.758 183.797 539.543C183.919 539.327 183.95 539.072 183.884 538.833C183.817 538.594 183.659 538.392 183.443 538.27C183.228 538.148 182.972 538.117 182.734 538.183C180.85 538.678 178.91 538.929 176.962 538.928C176.722 538.939 176.496 539.042 176.331 539.215C176.165 539.389 176.073 539.619 176.073 539.859C176.073 540.099 176.165 540.329 176.331 540.503C176.496 540.676 176.722 540.779 176.962 540.79H176.965Z" fill="#161616"/>
<path d="M69.7768 550.658C84.7968 552.458 99.7548 554.196 114.777 555.747C115.956 555.871 115.956 554.009 114.777 553.885C99.7568 552.333 84.7568 550.637 69.7768 548.796C68.5978 548.672 68.5978 550.534 69.7768 550.658Z" fill="#161616"/>
<path d="M64.0049 545.506C70.3359 546.127 76.6659 546.623 82.9969 546.934C84.1759 546.996 84.1759 545.134 82.9969 545.072C76.6659 544.762 70.3359 544.265 64.0049 543.645C62.8259 543.583 62.8259 545.445 64.0049 545.507V545.506Z" fill="#161616"/>
<path d="M90.9416 548.92C98.9428 548.899 106.934 549.501 114.842 550.72C116.021 550.906 116.518 549.106 115.342 548.92C107.27 547.679 99.1158 547.056 90.9496 547.058C90.7026 547.058 90.4659 547.156 90.2913 547.331C90.1167 547.505 90.0186 547.742 90.0186 547.989C90.0186 548.236 90.1167 548.473 90.2913 548.647C90.4659 548.822 90.7026 548.92 90.9496 548.92H90.9416Z" fill="#161616"/>
<path d="M128.306 554.941C137.244 553.514 146.119 551.9 154.994 550.1C156.173 549.852 155.677 548.052 154.494 548.3C145.619 550.1 136.743 551.714 127.806 553.141C126.627 553.327 127.123 555.127 128.306 554.941Z" fill="#161616"/>
<path d="M145.188 555.685C155.915 552.075 166.945 549.437 178.145 547.803C179.324 547.617 178.828 545.817 177.645 546.003C166.438 547.6 155.404 550.239 144.688 553.885C143.571 554.32 144.067 556.119 145.188 555.685Z" fill="#161616"/>
<path d="M172.373 546.128C175.382 545.21 178.483 544.627 181.621 544.39C182.8 544.328 182.8 542.466 181.621 542.528C178.315 542.755 175.045 543.359 171.877 544.328C170.76 544.7 171.256 546.5 172.377 546.128H172.373Z" fill="#161616"/>
<path d="M72.8188 557.299C72.7568 561.706 72.6328 566.112 72.5708 570.519C72.5819 570.758 72.6848 570.984 72.8582 571.15C73.0316 571.315 73.2621 571.408 73.5018 571.408C73.7415 571.408 73.972 571.315 74.1454 571.15C74.3188 570.984 74.4217 570.758 74.4328 570.519C74.4948 566.112 74.6188 561.706 74.6808 557.299C74.7428 556.12 72.8808 556.12 72.8188 557.299Z" fill="#161616"/>
<path d="M73.687 571.76C97.7683 574.987 121.871 578.194 145.994 581.38C147.173 581.566 147.173 579.704 145.994 579.518C121.913 576.291 97.8103 573.084 73.687 569.898C72.508 569.712 72.508 571.574 73.687 571.76V571.76Z" fill="#161616"/>
<path d="M126.754 562.761C133.954 563.878 141.154 564.809 148.415 565.492C149.594 565.616 149.594 563.754 148.415 563.63C141.339 562.947 134.264 562.078 127.251 560.961C126.072 560.775 125.575 562.575 126.751 562.761H126.754Z" fill="#161616"/>
<path d="M148.663 565.306C167.163 563.568 184.103 555.127 202.288 552.024C203.467 551.838 202.971 550.038 201.788 550.224C183.727 553.265 166.969 561.644 148.66 563.382C147.481 563.568 147.481 565.43 148.66 565.306H148.663Z" fill="#161616"/>
<path d="M183.792 548.733C190.061 549.664 196.392 550.347 202.722 550.719C203.901 550.781 203.901 548.919 202.722 548.857C196.515 548.485 190.371 547.864 184.288 546.933C183.109 546.747 182.612 548.547 183.788 548.733H183.792Z" fill="#161616"/>
<path d="M146.495 565.119C146.309 569.96 146.185 574.863 145.995 579.704C145.933 580.883 147.795 580.883 147.857 579.704C148.043 574.863 148.167 569.96 148.357 565.119C148.419 563.878 146.557 563.878 146.495 565.119Z" fill="#161616"/>
<path d="M146.988 581.442C165.546 576.975 183.876 571.72 201.978 565.677C203.095 565.305 202.599 563.505 201.478 563.877C183.355 569.897 165.045 575.111 146.488 579.642C145.309 579.89 145.805 581.69 146.988 581.442Z" fill="#161616"/>
<path d="M201.484 551.155C201.98 555.668 202.104 560.214 201.856 564.747C201.794 565.926 203.656 565.926 203.718 564.747C203.904 560.213 203.78 555.672 203.346 551.155C203.222 549.976 201.36 549.976 201.484 551.155Z" fill="#161616"/>
<path d="M78.4658 566.55C78.0557 566.622 77.6409 566.664 77.2248 566.674C76.9853 566.685 76.7593 566.788 76.5938 566.961C76.4283 567.135 76.3359 567.365 76.3359 567.605C76.3359 567.845 76.4283 568.075 76.5938 568.249C76.7593 568.422 76.9853 568.525 77.2248 568.536C92.9898 570.212 108.63 572.757 124.333 575.236C125.512 575.422 126.009 573.622 124.833 573.436C109.006 570.891 93.1788 568.347 77.2328 566.671V568.533C77.6428 568.461 78.0576 568.42 78.4738 568.409C79.6528 568.285 79.6528 566.423 78.4738 566.547L78.4658 566.55Z" fill="#161616"/>
<path d="M83.3078 563.816C88.0248 564.995 92.7418 566.116 97.5208 567.043C98.6998 567.291 99.1968 565.491 98.0208 565.243C93.2418 564.312 88.5208 563.257 83.8078 562.016C82.6908 561.768 82.1938 563.568 83.3078 563.816Z" fill="#161616"/>
<path d="M102.983 566.24C115.458 568.164 127.871 570.088 140.347 572.012C141.526 572.198 142.023 570.398 140.847 570.212C128.372 568.288 115.959 566.364 103.483 564.44C102.304 564.316 101.807 566.116 102.983 566.24V566.24Z" fill="#161616"/>
<path d="M156.794 569.03C167.159 568.782 176.531 563.754 186.71 562.203C187.889 562.017 187.393 560.217 186.21 560.403C176.217 561.955 167.032 566.92 156.791 567.168C155.612 567.23 155.612 569.092 156.791 569.03H156.794Z" fill="#161616"/>
<path d="M153.443 575.299C157.974 574.182 162.505 573.065 167.035 571.885C167.273 571.819 167.476 571.66 167.598 571.445C167.72 571.229 167.751 570.974 167.685 570.735C167.618 570.496 167.46 570.294 167.244 570.172C167.029 570.05 166.773 570.019 166.535 570.085C162.004 571.202 157.473 572.319 152.943 573.499C151.764 573.747 152.26 575.547 153.443 575.299Z" fill="#161616"/>
<path d="M184.288 566.982C189.626 565.555 194.963 564.127 200.301 562.637C200.419 562.604 200.529 562.548 200.626 562.473C200.723 562.397 200.803 562.303 200.864 562.197C200.924 562.09 200.963 561.972 200.978 561.85C200.993 561.729 200.983 561.605 200.951 561.487C200.918 561.369 200.862 561.258 200.786 561.162C200.711 561.065 200.617 560.984 200.51 560.924C200.403 560.864 200.286 560.825 200.164 560.81C200.042 560.795 199.919 560.804 199.801 560.837C194.463 562.265 189.126 563.692 183.788 565.182C183.549 565.248 183.346 565.407 183.224 565.622C183.103 565.838 183.071 566.093 183.138 566.332C183.204 566.571 183.362 566.773 183.578 566.895C183.794 567.017 184.049 567.048 184.288 566.982Z" fill="#161616"/>
<path d="M48.9229 578.525C58.7969 577.486 68.5334 575.405 77.9699 572.318C79.0869 571.946 78.5909 570.146 77.4699 570.518C68.1931 573.555 58.6245 575.614 48.9199 576.663C47.7409 576.787 47.7409 578.649 48.9199 578.525H48.9229Z" fill="#161616"/>
<path d="M48.1788 578.34C48.3648 582.561 48.6128 586.719 48.7998 590.94C48.8618 592.119 50.7238 592.119 50.6618 590.94C50.4758 586.719 50.2278 582.561 50.0408 578.34C49.9788 577.161 48.1168 577.161 48.1788 578.34Z" fill="#161616"/>
<path d="M49.8548 592.18C78.5295 595.966 107.183 599.733 135.816 603.48C136.995 603.666 136.995 601.742 135.816 601.618C107.141 597.832 78.4875 594.065 49.8548 590.318C48.6758 590.132 48.7378 591.994 49.8548 592.18Z" fill="#161616"/>
<path d="M49.2967 579.336C76.9781 583.246 104.68 586.804 132.403 590.011C133.582 590.135 133.582 588.273 132.403 588.149C104.845 584.984 77.3087 581.446 49.7927 577.536C48.6757 577.412 48.1167 579.212 49.2927 579.336H49.2967Z" fill="#161616"/>
<path d="M135.877 603.848C158.034 597.455 180.047 590.607 201.915 583.304C203.032 582.932 202.536 581.132 201.415 581.504C179.506 588.766 157.493 595.614 135.377 602.048C135.138 602.114 134.936 602.273 134.814 602.488C134.692 602.704 134.661 602.959 134.727 603.198C134.793 603.437 134.952 603.639 135.167 603.761C135.383 603.883 135.638 603.914 135.877 603.848V603.848Z" fill="#161616"/>
<path d="M143.263 589.263C162.938 584.87 182.32 579.252 201.295 572.443C202.412 572.071 201.916 570.271 200.795 570.643C181.82 577.452 162.438 583.07 142.763 587.463C141.584 587.711 142.08 589.511 143.263 589.263Z" fill="#161616"/>
<path d="M200.178 571.885C200.24 575.423 200.302 578.898 200.364 582.436C200.375 582.675 200.478 582.901 200.651 583.067C200.825 583.232 201.055 583.325 201.295 583.325C201.534 583.325 201.765 583.232 201.938 583.067C202.112 582.901 202.215 582.675 202.226 582.436C202.164 578.898 202.102 575.423 202.04 571.885C201.978 570.706 200.116 570.706 200.178 571.885Z" fill="#161616"/>
<path d="M186.089 570.829C190.868 571.329 195.589 571.822 200.364 572.256C201.543 572.38 201.543 570.518 200.364 570.394C195.585 569.894 190.864 569.401 186.089 568.967C184.91 568.843 184.91 570.705 186.089 570.829Z" fill="#161616"/>
<path d="M56.0609 588.642C69.7587 589.468 83.3956 591.104 96.8999 593.542C98.0789 593.728 98.5759 591.928 97.3999 591.742C83.7304 589.278 69.928 587.621 56.0639 586.777C54.8229 586.715 54.8849 588.577 56.0639 588.639L56.0609 588.642Z" fill="#161616"/>
<path d="M92.1208 588.457C103.106 590.071 114.071 591.912 125.016 593.981C126.195 594.229 126.692 592.429 125.516 592.181C114.592 590.133 103.627 588.292 92.6208 586.657C91.4418 586.471 90.9448 588.271 92.1208 588.457Z" fill="#161616"/>
<path d="M134.947 592.925C135.071 595.656 135.257 598.387 135.381 601.056C135.443 602.235 137.305 602.235 137.243 601.056C137.119 598.325 136.933 595.594 136.808 592.925C136.746 591.746 134.884 591.746 134.946 592.925H134.947Z" fill="#161616"/>
<path d="M145.312 593.483C154.498 591.435 163.621 589.138 172.745 586.656C172.863 586.623 172.973 586.567 173.07 586.492C173.167 586.416 173.248 586.323 173.308 586.216C173.368 586.109 173.407 585.991 173.422 585.87C173.437 585.748 173.428 585.624 173.395 585.506C173.362 585.388 173.306 585.277 173.231 585.181C173.155 585.084 173.061 585.003 172.954 584.943C172.848 584.883 172.73 584.844 172.608 584.829C172.486 584.814 172.363 584.823 172.245 584.856C163.183 587.339 153.998 589.635 144.812 591.683C143.633 591.931 144.129 593.731 145.312 593.483Z" fill="#161616"/>
<path d="M145.001 596.897C147.395 596.686 149.764 596.251 152.077 595.597C152.316 595.531 152.518 595.372 152.64 595.157C152.762 594.941 152.793 594.686 152.727 594.447C152.661 594.208 152.502 594.006 152.287 593.884C152.071 593.762 151.816 593.731 151.577 593.797C149.423 594.395 147.222 594.81 144.998 595.038C143.819 595.162 143.819 597.024 144.998 596.9L145.001 596.897Z" fill="#161616"/>
<path d="M178.518 587.028C184.29 585.166 190.062 583.304 195.772 581.504C196.889 581.132 196.393 579.332 195.272 579.704C189.5 581.566 183.728 583.428 178.018 585.228C176.901 585.6 177.397 587.4 178.518 587.028Z" fill="#161616"/>
<path d="M189.688 580.511C192.171 579.766 194.715 579.084 197.198 578.339C197.316 578.306 197.427 578.25 197.523 578.175C197.62 578.099 197.701 578.005 197.761 577.899C197.822 577.792 197.86 577.674 197.875 577.553C197.89 577.431 197.881 577.307 197.848 577.189C197.815 577.071 197.759 576.96 197.684 576.864C197.608 576.767 197.514 576.686 197.408 576.626C197.301 576.566 197.183 576.527 197.061 576.512C196.94 576.497 196.816 576.506 196.698 576.539C194.215 577.284 191.671 577.966 189.188 578.711C188.959 578.786 188.768 578.946 188.654 579.158C188.54 579.37 188.513 579.618 188.577 579.85C188.642 580.082 188.793 580.28 189 580.403C189.207 580.527 189.453 580.565 189.688 580.511V580.511Z" fill="#161616"/>
<path d="M77.4776 595.656C78.1089 600.49 78.3373 605.369 78.1606 610.241C78.0986 611.42 79.9606 611.42 80.0226 610.241C80.1993 605.369 79.9709 600.49 79.3396 595.656C79.2156 594.477 77.3536 594.477 77.4776 595.656Z" fill="#161616"/>
<path d="M79.771 611.544C108.446 615.268 137.099 618.971 165.732 622.654C166.911 622.778 166.911 620.916 165.732 620.792C137.057 617.068 108.404 613.365 79.771 609.682C78.592 609.496 78.592 611.358 79.771 611.544Z" fill="#161616"/>
<path d="M164.304 606.89C164.614 611.731 164.863 616.634 165.173 621.475C165.235 622.654 167.097 622.654 167.035 621.475C166.725 616.634 166.476 611.731 166.166 606.89C166.104 605.711 164.242 605.649 164.304 606.89Z" fill="#161616"/>
<path d="M165.484 622.53C183.421 613.841 201.379 605.172 219.357 596.524C220.412 596.024 219.481 594.414 218.426 594.91C200.488 603.599 182.531 612.268 164.553 620.916C163.436 621.474 164.429 623.088 165.484 622.53Z" fill="#161616"/>
<path d="M165.235 606.637C183.609 600.061 201.506 592.222 218.798 583.176C219.853 582.617 218.922 581.004 217.867 581.562C200.701 590.506 182.951 598.282 164.738 604.837C163.621 605.271 164.117 607.071 165.238 606.637H165.235Z" fill="#161616"/>
<path d="M217.122 582.436C217.246 587.091 217.37 591.746 217.494 596.336C217.556 597.515 219.418 597.515 219.356 596.336C219.232 591.681 219.108 587.026 218.984 582.436C218.984 582.189 218.886 581.952 218.711 581.778C218.536 581.603 218.3 581.505 218.053 581.505C217.806 581.505 217.569 581.603 217.394 581.778C217.22 581.952 217.122 582.189 217.122 582.436V582.436Z" fill="#161616"/>
<path d="M202.039 581.442C207.19 581.493 212.332 581.887 217.431 582.621C218.61 582.807 219.107 581.007 217.931 580.821C212.667 580.066 207.359 579.652 202.042 579.58C201.802 579.591 201.576 579.694 201.411 579.867C201.245 580.041 201.153 580.271 201.153 580.511C201.153 580.751 201.245 580.981 201.411 581.155C201.576 581.328 201.802 581.431 202.042 581.442H202.039Z" fill="#161616"/>
<path d="M136.871 604.035C143.147 605.153 149.493 605.837 155.863 606.083C157.042 606.145 157.042 604.283 155.863 604.221C149.657 603.993 143.476 603.329 137.363 602.235C136.184 601.987 135.687 603.787 136.863 604.035H136.871Z" fill="#161616"/>
<path d="M170.697 609.434C177.483 607.765 184.077 605.394 190.372 602.358C191.427 601.858 190.496 600.248 189.441 600.744C183.3 603.691 176.874 605.999 170.263 607.633C169.022 607.881 169.518 609.681 170.698 609.433L170.697 609.434Z" fill="#161616"/>
<path d="M171.44 614.27C176.882 612.231 182.171 609.804 187.267 607.008C188.322 606.449 187.391 604.836 186.336 605.394C181.385 608.128 176.239 610.493 170.94 612.47C169.823 612.904 170.257 614.704 171.44 614.27Z" fill="#161616"/>
<path d="M193.724 598.759C200.613 596.338 207.441 593.545 214.144 590.504C215.261 590.004 214.268 588.394 213.213 588.89C206.696 591.869 200.055 594.538 193.228 596.896C192.111 597.33 192.607 599.13 193.728 598.758L193.724 598.759Z" fill="#161616"/>
<path d="M196.392 602.855C203.151 599.936 209.65 596.448 215.819 592.428C216.812 591.745 215.881 590.194 214.888 590.814C208.726 594.846 202.226 598.335 195.461 601.241C194.344 601.741 195.275 603.289 196.392 602.855Z" fill="#161616"/>
<path d="M425.476 431.434C438.199 478.356 450.902 525.278 463.584 572.199C467.184 585.605 470.846 598.949 474.445 612.356C475.066 614.656 478.666 613.656 478.045 611.363C465.321 564.441 452.619 517.519 439.937 470.598C436.337 457.192 432.675 443.848 429.075 430.441C428.454 428.141 424.855 429.141 425.475 431.434H425.476Z" fill="#161616"/>
<path d="M388.796 433.416C389.355 485.055 389.893 536.714 390.41 588.394C390.534 602.979 390.72 617.627 390.844 632.213C390.86 632.696 391.063 633.154 391.41 633.491C391.758 633.827 392.222 634.015 392.706 634.015C393.189 634.015 393.654 633.827 394.002 633.491C394.349 633.154 394.552 632.696 394.568 632.213C394.009 580.574 393.471 528.915 392.954 477.234C392.83 462.649 392.644 448.001 392.519 433.416C392.519 431.057 388.795 431.057 388.795 433.416H388.796Z" fill="#161616"/>
<path d="M336.847 426.775C325.8 477.234 315.125 527.776 304.823 578.399C301.906 592.736 299.03 607.053 296.196 621.349C295.696 623.708 299.296 624.701 299.796 622.342C309.913 571.696 320.381 521.112 331.201 470.591C334.242 456.316 337.346 442.041 340.511 427.766C340.946 425.408 337.346 424.414 336.849 426.773L336.847 426.775Z" fill="#161616"/>
<path d="M311.028 559.72C337.903 559.969 364.736 560.61 391.528 561.644C393.949 561.768 393.949 558.044 391.528 557.92C364.715 556.865 337.882 556.223 311.028 555.996C308.669 555.996 308.669 559.72 311.028 559.72Z" fill="#161616"/>
<path d="M392.892 560.838C395.375 561.21 397.299 560.217 399.592 559.286C402.385 558.169 405.178 556.986 407.971 555.81C412.936 553.7 417.902 551.59 422.871 549.417C433.608 544.7 444.221 539.817 454.711 534.769C456.883 533.714 454.959 530.549 452.849 531.542C443.229 536.197 433.526 540.686 423.74 545.01C418.84 547.182 413.934 549.293 408.968 551.403C406.423 552.458 403.941 553.513 401.396 554.568C399.41 555.375 395.996 557.547 393.824 557.237C391.524 556.927 390.473 560.526 392.893 560.837L392.892 560.838Z" fill="#161616"/>
<path d="M375.079 434.471C370.114 478.538 365.147 522.625 360.179 566.733C358.751 579.208 357.386 591.746 355.959 604.221C355.711 606.579 359.435 606.579 359.683 604.221C364.648 560.154 369.615 516.067 374.583 471.959C376.011 459.484 377.376 446.946 378.804 434.471C379.114 432.112 375.39 432.112 375.08 434.471H375.079Z" fill="#161616"/>
<path d="M364.838 539.549C394.319 538.866 423.677 537.004 453.096 535.08C455.455 534.956 455.517 531.17 453.096 531.356C423.677 533.28 394.32 535.08 364.838 535.825C362.417 535.887 362.417 539.611 364.838 539.549Z" fill="#161616"/>
<path d="M311.714 559.533C330.272 554.133 348.147 546.81 366.084 539.61C368.256 538.741 367.325 535.141 365.091 536.01C347.154 543.21 329.279 550.534 310.721 555.933C308.421 556.554 309.421 560.154 311.714 559.533Z" fill="#161616"/>
<path d="M403.816 384.011C417.348 385.812 430.568 389.467 443.104 394.873C443.29 406.107 443.414 417.279 443.604 428.513C406.513 445.068 364.488 446.778 326.175 433.292C325.616 420.692 325.12 408.092 324.561 395.492C339.206 389.166 368.066 379.294 403.816 384.011Z" fill="#6C3939" stroke="#161616" stroke-width="3" stroke-miterlimit="10"/>
<path d="M329.647 398.411C334.488 403.811 341.439 405.735 348.453 406.604C357.515 407.783 366.825 408.156 376.01 408.466C394.878 409.087 413.994 408.032 431.931 401.577C433.048 401.205 432.552 399.405 431.431 399.777C414.363 405.922 396.24 407.163 378.303 406.666C369.738 406.418 361.171 405.921 352.603 405.176C344.845 404.493 336.466 403.19 331.003 397.107C330.134 396.176 328.831 397.541 329.637 398.407L329.647 398.411Z" fill="#161616"/>
<path d="M320.46 183.786C316.24 184.22 313.633 187.448 308.481 194.151C294.581 212.151 284.524 227.977 283.655 229.342C281.855 232.135 275.711 240.576 263.355 257.458C240.577 288.677 235.301 294.449 237.287 302.58C239.587 312.08 249.948 320.517 257.587 319.152C262.056 318.345 264.725 314.311 268.759 307.546C273.973 298.733 280.676 286.816 287.813 271.982C302.376 262.155 315.352 250.162 326.294 236.418C341.81 216.867 341.314 208.426 340.755 204.951C339.018 193.903 328.963 182.979 320.46 183.786Z" fill="#E3B593" stroke="#161616" stroke-width="3" stroke-miterlimit="10"/>
<path opacity="0.09" d="M333.495 191.606C330.454 191.978 329.771 200.792 328.595 206.254C324.495 225.122 309.665 227.046 285.087 255.038C274.787 266.831 267.46 277.754 260.695 287.995C254.116 297.926 248.965 306.615 245.241 313.195C246.383 315.387 248.247 317.118 250.517 318.095C254.617 319.709 258.586 317.909 259.889 317.288C264.789 314.988 265.661 311.454 273.73 297.799C278.881 289.048 278.819 289.979 281.054 285.572C285.154 277.441 284.84 275.021 288.378 270.924C291.478 267.262 293.716 267.448 299.736 262.793C304.894 258.924 309.788 254.715 314.384 250.193C320.603 243.969 326.197 237.151 331.084 229.835C337.104 220.96 338.532 216.735 339.215 214.381C341.698 205.816 340.146 200.789 339.649 199.361C338.522 196.199 335.853 191.296 333.495 191.606Z" fill="#3D3D3D"/>
<path opacity="0.18" d="M288.373 270.058C287.566 269.558 284.339 274.713 277.015 283.092C258.706 303.884 244.927 310.339 246.915 315.614C248.094 318.655 253.804 319.714 257.901 318.841C263.735 317.6 266.839 311.89 272.921 300.532C287.814 272.665 288.869 270.368 288.373 270.058Z" fill="#3D3D3D"/>
<path d="M234.687 544.824C236.425 564.189 238.101 583.553 239.838 602.918C212.838 616.448 199.93 625.018 201.238 628.675C202.79 633.142 225.837 630.08 270.379 619.489C269.513 592.556 268.664 565.598 267.834 538.617C256.783 540.665 245.734 542.734 234.687 544.824Z" fill="#161616" stroke="#161616" stroke-width="3" stroke-miterlimit="10"/>
<path d="M323.254 323.248C313.754 330.261 300.414 340.13 284.525 352.171C234.5 390.093 228.231 395.865 222.707 406.479C217.245 416.906 215.383 434.471 211.597 469.662C209.645 487.385 208.753 505.209 208.928 523.039C209.052 534.894 209.673 545.01 210.293 552.831C218.801 560.33 229.679 564.593 241.016 564.872C260.816 565.182 273.476 552.893 275.711 550.659C273.787 539.239 272.235 526.888 271.242 513.73C269.626 492.093 269.772 470.36 271.677 448.747C284.959 438.258 303.577 423.114 325.054 403.811C370.921 362.599 373.962 352.855 372.224 345.966C368.252 330.572 338.833 325.172 323.254 323.248Z" fill="#5D6546" stroke="#161616" stroke-width="3" stroke-miterlimit="10"/>
<path opacity="0.12" d="M343.922 327.965C337.281 330.199 340.822 345.219 336.35 359.184C331.261 375.135 319.53 379.417 290.483 401.513C277.016 411.767 264.225 422.879 252.188 434.78C252.436 462.647 251.567 492.253 249.147 523.472C248.03 537.623 246.664 551.464 245.113 564.808C256.118 563.259 266.544 558.921 275.401 552.208C273.415 540.416 271.863 527.63 270.87 513.913C269.336 492.252 269.504 470.503 271.37 448.868C282.418 439.558 291.417 432.234 297.562 427.207C305.879 420.442 310.099 417.152 317.237 411.07C321.337 407.594 325.492 403.932 335.857 394.436C362.545 370.106 369.869 362.41 371.669 351.611C372.538 346.087 371.421 343.111 370.676 341.556C368.376 337.025 363.6 334.977 354.042 330.943C348.329 328.646 345.473 327.406 343.922 327.965Z" fill="#3D3D3D"/>
<path opacity="0.5" d="M270.808 448.435C267.953 460.786 265.429 473.882 263.236 487.723C259.444 512.091 257.246 536.681 256.657 561.335C263.05 558.17 269.443 554.942 275.835 551.777C273.535 536.509 271.735 519.627 270.808 501.377C269.877 482.199 270.001 464.51 270.808 448.435Z" fill="#3D3D3D"/>
<path opacity="0.09" d="M366.576 338.02C362.169 337.648 358.197 347.764 355.466 353.661C349.566 366.571 333.557 383.453 301.531 417.154C293.831 425.285 283.47 435.836 270.808 447.877C274.16 445.456 278.69 442.229 283.908 438.319C295.701 429.444 302.714 423.485 325.244 404.059C325.244 404.059 333.375 397.046 366.58 362.227C368.318 360.427 372.538 355.834 372.6 349.627C372.72 344.413 369.865 338.326 366.576 338.02Z" fill="#3D3D3D"/>
<path d="M342.929 177.394C342.681 177.394 341.688 177.456 340.322 177.58C336.132 177.931 331.98 178.637 327.909 179.69C324.655 180.5 321.461 181.536 318.351 182.79C313.311 193.073 310.038 204.13 308.669 215.499C306.248 235.732 311.09 248.766 314.379 268.938C317.487 288.543 318.009 308.471 315.931 328.211C327.115 338.696 341.233 345.517 356.398 347.762C386.376 352.045 408.409 335.907 412.94 332.432C414.305 323.867 415.609 315.178 416.912 306.364C416.912 306.364 418.836 293.082 420.698 278.496C425.105 244.546 429.636 198.804 430.198 193.096C414.247 176.959 401.027 173.235 391.841 172.925C379.92 172.491 352.611 176.898 342.929 177.394Z" fill="#1D1E1F"/>
<path opacity="0.17" d="M366.39 190.862C370.931 195.578 374.852 200.854 378.058 206.562C397.174 240.45 385.32 279.986 380.044 297.55C374.697 315.368 366.456 332.185 355.653 347.33C362.047 348.439 368.562 348.669 375.018 348.013C388.63 346.514 401.572 341.32 412.444 332.993C416.911 303.388 421.028 273.058 424.795 242.004C426.719 225.991 428.457 210.226 430.133 194.524C426.133 189.482 421.304 185.159 415.853 181.738C410.391 178.324 402.509 173.359 392.702 173.856C377.314 174.725 367.818 188.752 366.39 190.862Z" fill="#3D3D3D"/>
<path d="M225.563 225.867H227.487C227.673 225.184 227.859 224.44 228.046 223.757C228.791 225.309 230.032 227.857 231.584 231.019C238.411 244.86 239.777 247.156 241.018 251.319C242.417 256.068 243.271 260.962 243.563 265.904C244.742 265.097 246.48 263.98 248.714 262.739C260.755 256.16 270.814 256.098 279.871 254.484C289.561 252.629 298.835 249.033 307.242 243.871C306.559 244.802 305.877 245.795 305.194 246.726C306.249 247.098 307.366 247.533 308.421 247.905C309.286 249.07 309.995 250.343 310.531 251.691C314.131 260.566 308.793 270.311 303.642 279.248C282.602 316.239 280.429 318.163 276.642 320.025C275.09 320.832 259.45 328.466 248.342 321.39C246.042 319.962 241.887 316.549 236.55 292.405C232.888 275.957 232.45 266.772 228.978 245.173C227.611 236.977 226.37 230.274 225.563 225.867Z" fill="white" stroke="#191919" stroke-width="2" stroke-miterlimit="10"/>
<path d="M229.101 229.281C234.377 240.581 239.59 252.059 241.201 264.472C241.263 264.782 241.701 264.782 241.701 264.472C240.087 251.935 234.874 240.39 229.536 229.032C229.503 228.976 229.448 228.936 229.385 228.919C229.322 228.903 229.255 228.912 229.198 228.944C229.142 228.976 229.1 229.03 229.082 229.093C229.064 229.155 229.071 229.223 229.102 229.28L229.101 229.281Z" fill="#191919"/>
<path d="M227.053 227.294C230.131 233.862 232.724 240.647 234.811 247.594C234.873 247.904 235.37 247.78 235.245 247.47C233.137 240.483 230.523 233.658 227.425 227.05C227.363 226.802 226.925 226.988 227.053 227.298V227.294Z" fill="#191919"/>
<path d="M235.559 247.218C237.583 252.801 238.998 258.585 239.779 264.472C239.841 264.782 240.279 264.782 240.279 264.472C239.498 258.545 238.084 252.719 236.059 247.094C236.043 247.028 236.001 246.971 235.942 246.935C235.884 246.9 235.814 246.89 235.747 246.906C235.681 246.922 235.624 246.965 235.589 247.023C235.553 247.082 235.543 247.152 235.559 247.218V247.218Z" fill="#191919"/>
<path d="M230.219 238.342C233.087 245.375 235.553 252.566 237.605 259.879C237.667 260.189 238.164 260.065 238.039 259.755C235.987 252.442 233.521 245.251 230.653 238.218C230.529 237.97 230.094 238.094 230.219 238.342Z" fill="#191919"/>
<path d="M244.616 267.451C252.338 262.295 261.122 258.944 270.316 257.645C270.626 257.583 270.502 257.145 270.192 257.21C260.96 258.508 252.136 261.858 244.369 267.014C244.183 267.2 244.37 267.635 244.618 267.448L244.616 267.451Z" fill="#191919"/>
<path d="M248.527 266.645C256.596 261.745 265.719 259.88 274.781 257.832C284.381 255.677 293.785 252.729 302.897 249.019C303.145 248.895 303.022 248.46 302.774 248.585C293.33 252.443 283.57 255.475 273.602 257.647C264.851 259.633 256.037 261.557 248.279 266.274C248.031 266.398 248.279 266.833 248.527 266.646V266.645Z" fill="#191919"/>
<path d="M247.038 268.88C256.596 264.349 266.338 261.556 276.581 259.074C286.636 256.591 296.381 252.743 306.186 249.392C306.496 249.268 306.372 248.833 306.062 248.958C295.945 252.434 285.828 256.468 275.401 258.889C265.558 261.101 255.97 264.325 246.789 268.509C246.479 268.571 246.727 269.009 247.037 268.881L247.038 268.88Z" fill="#191919"/>
<path d="M225.19 225.743C229.721 240.08 234.314 254.355 238.845 268.693L245.545 270.927C266.772 263.914 287.978 256.921 309.162 249.949C309.907 250.57 310.652 251.19 311.396 251.873C313.817 281.354 316.258 310.815 318.72 340.255C317.851 340.814 317.044 341.31 316.175 341.869C294.638 345.158 273.163 348.448 251.626 351.738C248.526 350.993 245.481 350.248 242.378 349.504C239.647 337.404 236.854 325.36 234.123 313.258L222.025 227.419C223.081 226.798 224.136 226.24 225.19 225.743Z" fill="#6C3030" stroke="#191919" stroke-width="2" stroke-miterlimit="10"/>
<path d="M237.854 269.065C238.847 295.94 240.771 322.876 242.261 349.751C242.323 350.62 243.688 350.62 243.688 349.751C242.198 322.876 240.274 296.002 239.281 269.065C239.219 268.134 237.791 268.134 237.854 269.065V269.065Z" fill="#191919"/>
<path d="M244.312 270.739C245.16 278.364 245.575 286.031 245.553 293.703C245.553 294.572 246.918 294.572 246.98 293.703C247.002 286.031 246.587 278.364 245.739 270.739C245.553 269.87 244.187 269.87 244.312 270.739Z" fill="#191919"/>
<path opacity="0.16" d="M282.912 259.259C283.468 271.752 280.592 284.159 274.596 295.133C268.6 306.107 259.714 315.23 248.9 321.511C248.652 316.422 248.341 311.332 248.093 306.305C245.983 309.843 243.935 313.381 241.824 316.918C242.258 327.966 242.755 339.018 243.189 350.123C246.168 350.744 249.147 351.364 252.189 352.047C273.105 348.695 294.083 345.347 315 341.992C316.117 341.558 317.172 341.061 318.289 340.627C315.931 310.773 313.572 280.94 311.213 251.127C301.78 253.797 292.346 256.528 282.912 259.259Z" fill="#6C6D6D"/>
<path opacity="0.1" d="M244.619 271.361C244.185 271.361 243.688 282.843 243.998 295.318C244.37 313.069 246.046 320.827 245.55 337.771C245.364 343.295 245.05 347.826 244.805 350.743C247.105 351.053 249.46 351.364 251.756 351.674C251.322 348.633 250.701 344.226 250.08 338.95C245.177 299.477 245.301 271.361 244.619 271.361Z" fill="#6C6D6D"/>
<path d="M261.313 274.837C276.083 271.362 290.632 267.01 304.883 261.803C306 261.369 305.504 259.569 304.383 260.003C290.113 265.153 275.567 269.504 260.813 273.037C260.589 273.115 260.402 273.276 260.292 273.487C260.182 273.697 260.156 273.942 260.219 274.171C260.283 274.401 260.431 274.597 260.635 274.721C260.838 274.844 261.08 274.886 261.313 274.837V274.837Z" fill="#191919"/>
<path d="M227.797 276.7C227.114 276.948 227.176 278.19 226.618 283.962C226.246 287.872 226.118 287.934 226.246 288.862C226.556 291.469 227.487 291.962 227.798 294.944C227.984 296.868 227.612 297.116 227.922 298.73C228.226 300.324 228.883 301.83 229.846 303.137C229.858 304.081 230.069 305.012 230.467 305.868C231.46 307.792 233.756 309.468 234.998 308.847C235.681 308.537 235.867 307.233 236.177 304.689C236.487 302.331 236.301 302.206 236.549 299.476C236.797 297.242 236.984 296.807 236.797 295.69C236.611 294.325 236.114 293.89 235.618 292.463C234.935 290.477 235.246 289.732 234.811 287.684C234.295 285.112 233.238 282.679 231.711 280.546C230.839 279.182 228.974 276.327 227.797 276.7Z" fill="#E3B593"/>
<path d="M227.362 276.141C226.547 277.807 226.097 279.628 226.044 281.482C225.99 283.335 226.333 285.179 227.05 286.89C227.767 288.6 228.841 290.137 230.201 291.398C231.561 292.659 233.175 293.615 234.934 294.202C235.803 294.512 236.175 293.147 235.306 292.837C233.746 292.317 232.316 291.469 231.111 290.35C229.906 289.232 228.954 287.869 228.32 286.352C227.685 284.835 227.382 283.2 227.432 281.557C227.481 279.914 227.881 278.3 228.606 276.824C228.916 276.017 227.737 275.334 227.365 276.141H227.362Z" fill="#191919"/>
<path d="M227.611 277.258C232.042 281.322 234.714 286.955 235.059 292.958C235.121 293.827 236.487 293.827 236.487 292.958C236.16 286.571 233.328 280.57 228.605 276.258C227.922 275.637 226.929 276.63 227.612 277.251L227.611 277.258Z" fill="#191919"/>
<path d="M225.749 284.831C225.334 286.524 225.268 288.284 225.554 290.004C225.839 291.724 226.472 293.368 227.412 294.836C228.352 296.304 229.581 297.566 231.023 298.545C232.466 299.524 234.092 300.2 235.804 300.531C236.673 300.717 237.045 299.352 236.176 299.166C234.636 298.886 233.171 298.293 231.869 297.424C230.567 296.555 229.458 295.429 228.608 294.114C227.759 292.8 227.188 291.325 226.931 289.781C226.674 288.238 226.737 286.658 227.114 285.139C227.3 284.27 225.935 283.898 225.749 284.829V284.831Z" fill="#191919"/>
<path d="M227.113 293.956C226.783 295.238 226.722 296.575 226.934 297.882C227.145 299.188 227.624 300.438 228.341 301.551C229.058 302.664 229.997 303.617 231.099 304.35C232.201 305.083 233.443 305.58 234.747 305.811C235.616 305.997 235.988 304.632 235.119 304.446C233.99 304.272 232.91 303.864 231.947 303.248C230.985 302.632 230.162 301.822 229.531 300.869C228.901 299.917 228.476 298.843 228.284 297.717C228.093 296.59 228.139 295.436 228.419 294.329C228.451 294.241 228.465 294.148 228.46 294.055C228.454 293.962 228.43 293.871 228.388 293.788C228.346 293.704 228.287 293.631 228.215 293.571C228.143 293.512 228.059 293.468 227.969 293.442C227.88 293.417 227.786 293.41 227.693 293.422C227.601 293.434 227.512 293.466 227.432 293.514C227.352 293.562 227.283 293.627 227.229 293.703C227.175 293.779 227.138 293.866 227.119 293.957L227.113 293.956Z" fill="#191919"/>
<path d="M228.914 302.829C228.794 304.149 229.095 305.473 229.776 306.611C230.456 307.749 231.48 308.641 232.7 309.16C233.216 309.432 233.805 309.536 234.383 309.458C234.961 309.38 235.501 309.125 235.927 308.726C236.796 307.733 236.427 306.243 235.927 305.188C235.617 304.381 234.251 304.754 234.562 305.56C234.872 306.243 235.493 307.608 234.5 308.043C233.755 308.353 232.576 307.609 232.017 307.174C231.383 306.657 230.89 305.986 230.586 305.226C230.282 304.466 230.176 303.641 230.279 302.829C230.403 301.898 228.979 301.96 228.914 302.829V302.829Z" fill="#191919"/>
<path d="M235.305 305.747C236.67 305.747 237.229 304.382 237.415 303.202C237.672 301.771 237.407 300.296 236.67 299.044C236.236 298.237 234.994 298.982 235.491 299.727C235.924 300.439 236.159 301.253 236.174 302.086C236.174 302.52 236.05 304.32 235.305 304.32C235.128 304.338 234.964 304.42 234.844 304.552C234.725 304.684 234.659 304.856 234.659 305.034C234.659 305.211 234.725 305.383 234.844 305.515C234.964 305.647 235.128 305.729 235.305 305.747V305.747Z" fill="#191919"/>
<path d="M237.045 300.036C237.914 299.229 237.914 297.678 237.728 296.56C237.544 295.158 236.912 293.852 235.928 292.836C235.307 292.153 234.314 293.146 234.935 293.829C235.594 294.517 236.044 295.378 236.235 296.312C236.359 296.995 236.545 298.484 235.987 299.043C235.366 299.664 236.359 300.657 237.042 300.036H237.045Z" fill="#191919"/>
<path d="M301.655 499.95C303.955 513.85 306.186 527.818 308.482 541.72C282.973 559.843 271.118 570.52 272.918 573.87C275.028 577.78 295.882 571.511 335.48 555.064C334.053 532.348 332.625 509.694 331.135 486.978C321.327 491.323 311.461 495.605 301.655 499.95Z" fill="#161616" stroke="#161616" stroke-width="3" stroke-miterlimit="10"/>
<path d="M413.249 332C414.742 344.237 413.534 356.652 409.711 368.371C407.601 374.702 404.063 385.071 394.753 394.811C388.795 401.018 378.368 411.941 363.161 411.511C350.872 411.139 342.183 403.629 339.017 400.587C338.086 412.255 337.589 424.917 337.838 438.509C338.18 457.395 339.901 476.23 342.989 494.865C335.541 508.644 321.266 517.147 306.189 516.712C286.824 516.154 275.839 501.196 274.597 499.458C270.902 465.289 269.554 430.907 270.563 396.553C271.246 375.389 272.735 357.886 285.521 343.673C297.996 329.773 314.506 326.605 318.85 325.86C350.628 320.212 374.65 342.618 377.502 345.411C384.076 345.893 390.676 344.944 396.848 342.63C403.02 340.315 408.616 336.691 413.252 332.005L413.249 332Z" fill="#5D6546" stroke="#161616" stroke-width="3" stroke-miterlimit="10"/>
<path d="M340.012 382.521C338.287 390.27 337.331 398.17 337.157 406.106C337.168 406.345 337.271 406.571 337.445 406.737C337.618 406.902 337.849 406.995 338.088 406.995C338.328 406.995 338.558 406.902 338.732 406.737C338.905 406.571 339.008 406.345 339.019 406.106C339.178 398.34 340.093 390.607 341.75 383.018C342.06 381.839 340.26 381.342 340.012 382.518V382.521Z" fill="#161616"/>
<path d="M340.448 392.451C341.317 390.527 342.124 388.603 342.993 386.617C343.493 385.5 341.876 384.569 341.379 385.686C340.51 387.61 339.703 389.534 338.834 391.52C338.334 392.575 339.951 393.506 340.448 392.451Z" fill="#161616"/>
<path d="M375.203 344.475C379.362 348.447 382.217 354.157 385.32 358.998C385.941 359.991 387.554 359.06 386.934 358.067C383.707 353.102 380.79 347.33 376.507 343.167C376.331 343.016 376.104 342.937 375.872 342.946C375.64 342.955 375.42 343.051 375.256 343.216C375.092 343.38 374.996 343.6 374.987 343.832C374.978 344.064 375.056 344.291 375.207 344.467L375.203 344.475Z" fill="#161616"/>
<path opacity="0.5" d="M393.451 343.171C393.612 347.168 393.488 351.171 393.079 355.15C391.9 366.632 390.907 376.377 384.579 380.597C377.193 385.562 365.959 380.845 361.801 379.045C347.401 372.963 345.726 362.784 337.471 362.039C327.727 361.17 317.61 374.204 312.771 384.445C300.792 409.582 314.385 429.257 315.871 474.378C316.287 488.321 315.517 502.273 313.571 516.086C317.729 515.598 321.777 514.424 325.55 512.61C333.154 508.837 339.367 502.753 343.301 495.232C342.866 491.818 342.246 486.543 341.377 480.15C339.267 464.572 338.584 462.896 337.901 456.193C337.591 453.152 337.342 449.738 337.901 427.643C338.087 421.126 338.273 412.127 338.646 401.389C340.867 402.949 343.189 404.359 345.597 405.609C347.645 406.664 354.845 410.45 361.424 411.381C371.913 412.871 380.851 406.974 385.381 404.057C397.732 395.926 403.07 384.506 406.608 376.624C412.726 362.811 415.245 347.674 413.932 332.624C410.526 336.372 406.299 339.281 401.581 341.124C398.976 342.171 396.242 342.859 393.451 343.171V343.171Z" fill="#333247"/>
<path opacity="0.11" d="M411.574 345.468C410.147 344.968 405.864 353.35 405.367 354.343C401.333 362.35 401.457 367.501 399.967 372.466C397.05 382.397 387.616 392.389 377.996 394.872C361.796 399.03 348.204 381.093 340.943 386.741C337.529 389.41 337.716 395.492 339.019 399.092C342.743 409.457 359.625 410.202 361.797 410.264C376.507 410.764 387.306 401.637 390.72 398.657C412.567 379.79 414.181 346.399 411.574 345.468Z" fill="#3D3D3D"/>
<path opacity="0.11" d="M340.136 385.998C339.081 385.812 335.791 396.239 333.557 406.48C330.434 421.181 329.141 436.211 329.709 451.229C329.895 465.752 328.654 486.544 322.385 512.984C326.17 512.045 329.72 510.334 332.812 507.957C337.196 504.591 340.533 500.048 342.432 494.857C341.191 481.265 340.322 469.72 339.701 460.907C338.211 439.618 337.467 428.757 337.777 418.826C338.46 399.03 341.315 386.245 340.136 385.998Z" fill="#3D3D3D"/>
<path d="M312.206 284.458C312.765 282.844 316.489 282.844 317.482 282.844C319.307 282.846 321.098 283.337 322.67 284.265C324.241 285.192 325.536 286.523 326.42 288.12C326.652 288.605 326.779 289.134 326.792 289.672C326.833 290.415 326.697 291.157 326.395 291.837C326.093 292.516 325.633 293.115 325.054 293.582C321.827 295.63 311.089 287.623 312.206 284.458Z" fill="white" stroke="#161616" stroke-width="3" stroke-miterlimit="10"/>
<path d="M425.416 188.877C435.284 194.959 434.105 212.152 432.616 233.689C431.583 249.571 428.367 265.234 423.058 280.238C419.9 288.918 415.996 297.307 411.39 305.313C392.999 313.242 373.059 316.934 353.048 316.113C344.87 315.734 336.745 314.591 328.78 312.699C320.401 318.471 313.636 318.409 310.719 318.099C306.188 317.665 300.23 315.616 300.292 313.63C300.292 312.265 303.209 311.147 304.512 310.651C306.434 309.976 308.438 309.558 310.47 309.41C310.47 309.286 308.17 309.41 305.753 309.162C303.156 309.009 300.61 308.378 298.243 307.3C297.25 306.8 292.343 304.383 291.416 299.666C290.547 295.383 293.154 290.542 297.933 287.687C304.957 285.804 312.309 285.486 319.47 286.756C325.017 287.768 330.363 289.676 335.297 292.404C351.997 288.304 368.688 284.149 385.322 280.053C385.632 276.577 386.191 271.488 386.874 265.219C389.046 245.419 390.101 235.489 391.774 227.111C395.874 206.505 398.539 193.037 408.966 188.32C413.622 186.27 420.388 185.773 425.416 188.877Z" fill="#E3B593" stroke="#161616" stroke-width="3" stroke-miterlimit="10"/>
<path opacity="0.18" d="M415.67 187.453C418.512 205.346 419.262 223.508 417.904 241.574C416.042 266.462 414.987 278.874 406.174 289.174C392.954 304.628 364.466 312.387 342.308 306.118C333.743 303.697 321.392 298.174 306.248 301.277C301.903 302.146 295.262 304.194 295.386 305.808C295.51 307.049 299.979 308.291 303.144 308.663C305.565 308.911 307.116 308.725 307.244 309.222C307.616 310.401 300.603 312.387 300.789 314.436C300.913 316.174 306.437 317.536 310.968 317.663C316.979 317.791 322.901 316.197 328.036 313.07C335.374 314.826 342.85 315.947 350.38 316.422C371.45 317.595 392.5 313.789 411.825 305.312C424.463 282.393 431.742 256.908 433.114 230.771C433.593 218.598 432.634 206.411 430.259 194.462C428.885 191.639 426.554 189.395 423.68 188.131C421.147 187.072 418.345 186.835 415.67 187.453V187.453Z" fill="#3D3D3D"/>
<path opacity="0.21" d="M399.099 305.622C389.479 307.112 383.893 308.663 379.548 309.532C367.405 312.068 354.922 312.551 342.619 310.96C338.49 310.493 334.388 309.809 330.33 308.912C325.404 310.93 320.225 312.266 314.938 312.884C306.497 313.815 300.477 312.574 300.29 313.629C300.104 314.622 305.255 317.229 310.717 317.849C319.034 318.78 325.799 314.749 328.84 312.635C334.13 314.116 339.524 315.194 344.977 315.862C380.913 320.269 412.505 305.373 412.132 304.007C412.071 303.574 407.726 304.257 399.099 305.622Z" fill="#3D3D3D"/>
<path d="M295.139 305.746C300.92 303.288 307.336 302.744 313.448 304.194C314.627 304.442 315.124 302.642 313.948 302.394C307.354 300.817 300.425 301.427 294.208 304.133C293.091 304.633 294.084 306.243 295.139 305.747V305.746Z" fill="#161616"/>
<path d="M291.85 299.788C298.676 297.307 305.998 296.498 313.201 297.43C314.38 297.554 314.38 295.692 313.201 295.568C305.83 294.626 298.34 295.456 291.354 297.989C290.237 298.423 290.733 300.223 291.854 299.789L291.85 299.788Z" fill="#161616"/>
<path d="M293.586 293.457C300.349 291.478 307.411 290.721 314.44 291.223C315.619 291.285 315.619 289.423 314.44 289.361C307.244 288.881 300.019 289.66 293.089 291.661C292.851 291.727 292.648 291.886 292.526 292.101C292.404 292.317 292.373 292.572 292.439 292.811C292.506 293.05 292.664 293.252 292.88 293.374C293.095 293.496 293.351 293.527 293.589 293.461L293.586 293.457Z" fill="#161616"/>
<path d="M326.419 89.634C309.103 103.661 309.785 132.211 316.613 150.645C320.014 159.728 325.374 167.95 332.313 174.727C333.43 179.444 334.485 184.227 335.602 188.94C342.506 190.455 349.6 190.915 356.642 190.305C370.589 188.913 383.819 183.454 394.688 174.605C390.532 164.3 386.375 153.976 382.217 143.634C381.658 139.848 380.852 134.014 379.858 126.934C377.313 108.376 377.437 107.383 376.32 104.404C375.82 103.163 368.81 85.412 352.363 82.246C339.019 79.702 328.033 88.267 326.419 89.634Z" fill="#E3B593" stroke="#161616" stroke-width="3" stroke-miterlimit="10"/>
<path d="M312.144 137.118C310.7 142.79 310.26 148.672 310.844 154.496C311.344 159.396 312.144 167.902 318.292 176.096C323.229 182.476 330.013 187.179 337.719 189.564C337.345 188.369 337.075 187.144 336.912 185.902C336.756 184.583 336.756 183.249 336.912 181.93C341.012 184.102 345.105 186.337 349.139 188.509C359.439 179.075 362.856 170.509 364.039 164.241C364.97 159.341 365.529 150.341 367.763 133.953C368.135 131.036 368.942 125.76 372.294 124.453C373.141 124.14 374.053 124.049 374.944 124.191C375.836 124.332 376.675 124.7 377.383 125.26C381.483 128.674 377.321 138.418 378.19 138.728C379.059 138.976 386.196 129.17 383.776 117.874C382.742 113.368 380.438 109.254 377.135 106.019C372.669 113.032 367.702 120.232 362.235 127.619C358.759 132.336 355.284 136.805 351.87 141.087C350.211 142.032 348.316 142.483 346.408 142.387C344.67 142.263 344.05 141.642 342.746 141.27C337.905 139.905 335.298 145.553 330.581 144.808C326.671 144.187 326.298 140.029 322.016 139.908C319.968 139.846 319.099 140.777 316.989 140.342C315.063 139.83 313.36 138.697 312.144 137.118V137.118Z" fill="#161616" stroke="#161616" stroke-width="3" stroke-miterlimit="10"/>
<path d="M332.129 120.541C330.643 127.281 329.71 134.131 329.338 141.023C329.34 141.189 329.386 141.352 329.47 141.494C329.555 141.637 329.675 141.755 329.82 141.837C329.964 141.919 330.128 141.961 330.294 141.96C330.46 141.959 330.623 141.914 330.766 141.83C333.187 140.589 335.607 139.347 338.09 138.106C339.145 137.547 338.214 135.934 337.159 136.492C334.738 137.733 332.318 138.975 329.835 140.216C330.335 140.464 330.766 140.775 331.263 141.023C331.672 134.302 332.585 127.622 333.994 121.038C334.18 119.859 332.38 119.362 332.132 120.538L332.129 120.541Z" fill="#161616"/>
<path d="M322.385 124.328C323.068 125.383 323.192 126.997 322.633 127.307C321.95 127.679 320.026 126.252 319.778 124.638C319.716 124.138 319.778 123.273 320.212 123.024C320.834 122.714 321.891 123.521 322.385 124.328Z" fill="#161616" stroke="#161616" stroke-width="3" stroke-miterlimit="10"/>
<path d="M319.158 117.934C320.225 117.375 321.432 117.136 322.632 117.246C323.832 117.356 324.975 117.811 325.923 118.555C326.854 119.3 328.157 117.996 327.223 117.255C325.986 116.222 324.468 115.582 322.865 115.416C321.262 115.25 319.645 115.566 318.223 116.324C317.168 116.883 318.099 118.496 319.154 117.938L319.158 117.934Z" fill="#161616"/>
<path d="M340.818 118.866C342.303 117.858 344.126 117.475 345.891 117.8C347.657 118.126 349.223 119.133 350.252 120.604C350.935 121.597 352.552 120.666 351.866 119.673C350.572 117.797 348.6 116.495 346.365 116.044C344.131 115.592 341.808 116.025 339.887 117.252C338.894 117.935 339.825 119.552 340.818 118.866Z" fill="#161616"/>
<path d="M298.49 107.011C323.254 108.438 347.977 110.507 372.659 113.218C376.259 113.59 376.197 108.004 372.659 107.632C348.019 104.965 323.296 102.896 298.49 101.425C294.89 101.239 294.89 106.825 298.49 107.011Z" fill="#161616"/>
<path d="M314.565 103.225C314.937 99.439 316.489 89.695 324.065 81.812C333.934 71.512 352.119 67.164 366.265 75.912C377.375 82.801 383.271 96.083 381.285 109.612C359.004 107.508 336.785 105.335 314.565 103.225Z" fill="#1D1E1F"/>
<path opacity="0.69" d="M345.847 73.185C342.93 75.606 342.93 80.633 343.985 86.033C345.102 91.933 347.957 99.133 352.302 106.453C361.922 107.57 371.602 108.687 381.225 109.805C381.819 106.928 381.966 103.976 381.659 101.054C381.111 96.6031 379.699 92.3021 377.501 88.393C370.425 76.475 351.929 68.096 345.847 73.185Z" fill="#111111"/>
<path opacity="0.24" d="M376.072 141.643C374.506 142.45 372.715 142.712 370.983 142.388C372.817 145.893 374.233 149.601 375.203 153.436C376.444 158.525 378.244 165.477 375.886 173.483C374.141 179.13 370.8 184.152 366.266 187.944C376.714 186.026 386.353 181.034 393.947 173.607C389.354 160.635 384.823 147.664 380.23 134.692C380.231 134.94 379.983 139.592 376.072 141.643Z" fill="#3D3D3D"/>
<path opacity="0.19" d="M354.349 111.107C355.309 115.279 355.498 119.591 354.907 123.831C353.973 130.371 351.269 136.531 347.087 141.644L351.187 140.344C353.918 137.055 356.649 133.579 359.38 129.979C363.849 124.079 368.007 118.311 371.731 112.663C365.955 112.224 360.121 111.666 354.349 111.107Z" fill="#3D3D3D"/>
<path d="M345.908 124.886C346.591 125.941 346.715 127.555 346.156 127.865C345.473 128.237 343.549 126.81 343.301 125.196C343.239 124.696 343.301 123.831 343.735 123.582C344.357 123.272 345.35 124.079 345.908 124.886Z" fill="#161616" stroke="#161616" stroke-width="3" stroke-miterlimit="10"/>
<path d="M318.723 140.403C324.928 140.403 329.957 135.373 329.957 129.169C329.957 122.965 324.928 117.935 318.723 117.935C312.519 117.935 307.489 122.965 307.489 129.169C307.489 135.373 312.519 140.403 318.723 140.403Z" stroke="#161616" stroke-width="2" stroke-miterlimit="10"/>
<path d="M344.853 140.403C351.058 140.403 356.087 135.373 356.087 129.169C356.087 122.965 351.058 117.935 344.853 117.935C338.649 117.935 333.619 122.965 333.619 129.169C333.619 135.373 338.649 140.403 344.853 140.403Z" stroke="#161616" stroke-width="2" stroke-miterlimit="10"/>
<path d="M331.261 129.541C331.381 129.383 331.557 129.275 331.752 129.241C331.948 129.206 332.149 129.247 332.316 129.355C332.493 129.506 332.72 129.585 332.952 129.576C333.184 129.567 333.404 129.471 333.568 129.307C333.732 129.142 333.828 128.922 333.837 128.69C333.846 128.458 333.767 128.231 333.616 128.055C333.365 127.824 333.07 127.645 332.749 127.529C332.428 127.413 332.087 127.362 331.746 127.38C331.405 127.397 331.071 127.482 330.764 127.63C330.456 127.778 330.181 127.986 329.954 128.241C329.791 128.418 329.7 128.65 329.7 128.891C329.7 129.132 329.791 129.364 329.954 129.541C330.038 129.629 330.139 129.699 330.251 129.746C330.363 129.794 330.483 129.819 330.604 129.819C330.726 129.819 330.846 129.794 330.958 129.746C331.069 129.699 331.17 129.629 331.254 129.541H331.261Z" fill="#161616"/>
<path d="M308.421 129.914C309.614 129.291 310.774 128.608 311.897 127.866C312.89 127.245 311.959 125.632 310.966 126.252C309.843 126.994 308.683 127.677 307.49 128.3C306.373 128.859 307.366 130.472 308.421 129.914Z" fill="#161616"/>
<path d="M356.769 129.727C361.92 128.427 367.134 127.182 372.285 125.879C372.524 125.813 372.726 125.654 372.848 125.439C372.97 125.223 373.001 124.968 372.935 124.729C372.869 124.49 372.71 124.288 372.495 124.166C372.279 124.044 372.024 124.013 371.785 124.079C366.634 125.379 361.42 126.624 356.269 127.927C356.03 127.993 355.828 128.152 355.706 128.367C355.584 128.583 355.553 128.838 355.619 129.077C355.685 129.316 355.844 129.518 356.059 129.64C356.275 129.762 356.53 129.793 356.769 129.727Z" fill="#161616"/>
</g>
<defs>
<clipPath id="clip0_216_2">
<rect width="738.552" height="644.067" fill="white"/>
</clipPath>
</defs>
</svg>
