<svg xmlns="http://www.w3.org/2000/svg" xmlns:xlink="http://www.w3.org/1999/xlink" width="50" height="50" viewBox="0 0 50 50">
  <defs>
    <filter id="Retângulo_11" x="-15" y="-10" width="80" height="80" filterUnits="userSpaceOnUse">
      <feOffset dy="5" input="SourceAlpha"/>
      <feGaussianBlur stdDeviation="5" result="blur"/>
      <feFlood flood-color="#15570a"/>
      <feComposite operator="in" in2="blur"/>
      <feComposite in="SourceGraphic"/>
    </filter>
    <clipPath id="clip-path">
      <g transform="matrix(1, 0, 0, 1, 0, 0)" filter="url(#Retângulo_11)">
        <rect id="Retângulo_11-2" data-name="Retângulo 11" width="50" height="50" transform="translate(806 4086)" fill="#fff"/>
      </g>
    </clipPath>
    <filter id="Retângulo_15" x="-12" y="-12" width="80" height="80" filterUnits="userSpaceOnUse">
      <feOffset dx="3" dy="3" input="SourceAlpha"/>
      <feGaussianBlur stdDeviation="5" result="blur-2"/>
      <feFlood flood-color="#6c3030"/>
      <feComposite operator="in" in2="blur-2"/>
      <feComposite in="SourceGraphic"/>
    </filter>
  </defs>
  <g id="ttt" transform="translate(-806 -4086)" clip-path="url(#clip-path)">
    <g id="tt" transform="translate(806 4086)">
      <g transform="matrix(1, 0, 0, 1, 0, 0)" filter="url(#Retângulo_15)">
        <rect id="Retângulo_15-2" data-name="Retângulo 15" width="50" height="50" rx="11.25" fill="#f2e9e1"/>
      </g>
      <path id="Caminho_258" data-name="Caminho 258" d="M47.217,20.669a7.031,7.031,0,0,1-3.906,1.172,7.031,7.031,0,0,0,3.125-3.906,7.031,7.031,0,0,1-4.395,1.66,7.031,7.031,0,0,0-11.914,6.348,19.531,19.531,0,0,1-14.16-7.227,7.031,7.031,0,0,0,2.148,9.18,7.031,7.031,0,0,1-3.125-.684,7.031,7.031,0,0,0,5.469,6.738,7.031,7.031,0,0,1-3.125.1,7.031,7.031,0,0,0,6.543,4.883,19.531,19.531,0,0,1-10.254,2.832A19.531,19.531,0,0,0,43.8,24.282a19.531,19.531,0,0,0,3.418-3.613" transform="translate(-4.541 -5.825)" fill="#6c3030"/>
    </g>
  </g>
</svg>
