<svg xmlns="http://www.w3.org/2000/svg" xmlns:xlink="http://www.w3.org/1999/xlink" width="50" height="50" viewBox="0 0 50 50">
  <defs>
    <clipPath id="clip-path">
      <rect id="Ret창ngulo_13" data-name="Ret창ngulo 13" width="50" height="50" transform="translate(1020 4086)" fill="#fff"/>
    </clipPath>
  </defs>
  <g id="yt" transform="translate(-1020 -4086)" clip-path="url(#clip-path)">
    <g id="yt-2" data-name="yt" transform="translate(1020 4086)">
      <rect id="Ret창ngulo_16" data-name="Ret창ngulo 16" width="50" height="50" rx="11.25" fill="#f2e9e1"/>
      <path id="Caminho_259" data-name="Caminho 259" d="M45.5,22.894a4.439,4.439,0,0,0-3.125-3.027c-3.32-.879-23.34-.977-27.148,0A4.439,4.439,0,0,0,12.1,22.894c-.879,3.711-.977,13.184,0,16.992a4.439,4.439,0,0,0,3.125,3.027c3.516.977,23.535.977,27.148,0A4.439,4.439,0,0,0,45.5,39.886c.879-3.516.879-13.379,0-16.992" transform="translate(-3.802 -6.39)" fill="#6c3030"/>
      <path id="Caminho_260" data-name="Caminho 260" d="M32.227,29.736V40.088l9.082-5.176" transform="translate(-10.742 -9.912)" fill="#f2e9e1"/>
    </g>
  </g>
</svg>
